G04 #@! TF.GenerationSoftware,KiCad,Pcbnew,5.0.1-33cea8e~68~ubuntu18.04.1*
G04 #@! TF.CreationDate,2018-10-29T18:28:04+11:00*
G04 #@! TF.ProjectId,PIC18F24K40,50494331384632344B34302E6B696361,rev?*
G04 #@! TF.SameCoordinates,Original*
G04 #@! TF.FileFunction,Copper,L2,Bot,Signal*
G04 #@! TF.FilePolarity,Positive*
%FSLAX46Y46*%
G04 Gerber Fmt 4.6, Leading zero omitted, Abs format (unit mm)*
G04 Created by KiCad (PCBNEW 5.0.1-33cea8e~68~ubuntu18.04.1) date Mon 29 Oct 2018 18:28:04 AEDT*
%MOMM*%
%LPD*%
G01*
G04 APERTURE LIST*
G04 #@! TA.AperFunction,ComponentPad*
%ADD10O,1.700000X1.700000*%
G04 #@! TD*
G04 #@! TA.AperFunction,ComponentPad*
%ADD11R,1.700000X1.700000*%
G04 #@! TD*
G04 #@! TA.AperFunction,ViaPad*
%ADD12C,0.600000*%
G04 #@! TD*
G04 #@! TA.AperFunction,Conductor*
%ADD13C,0.300000*%
G04 #@! TD*
G04 #@! TA.AperFunction,Conductor*
%ADD14C,0.150000*%
G04 #@! TD*
G04 #@! TA.AperFunction,Conductor*
%ADD15C,0.254000*%
G04 #@! TD*
G04 APERTURE END LIST*
D10*
G04 #@! TO.P,J3,6*
G04 #@! TO.N,Net-(J3-Pad6)*
X121920000Y-76200000D03*
G04 #@! TO.P,J3,5*
G04 #@! TO.N,/RB6*
X119380000Y-76200000D03*
G04 #@! TO.P,J3,4*
G04 #@! TO.N,/RB7*
X116840000Y-76200000D03*
G04 #@! TO.P,J3,3*
G04 #@! TO.N,GND*
X114300000Y-76200000D03*
G04 #@! TO.P,J3,2*
G04 #@! TO.N,VCC*
X111760000Y-76200000D03*
D11*
G04 #@! TO.P,J3,1*
G04 #@! TO.N,/RE3*
X109220000Y-76200000D03*
G04 #@! TD*
G04 #@! TO.P,J2,1*
G04 #@! TO.N,VCC*
X124460000Y-76200000D03*
D10*
G04 #@! TO.P,J2,2*
G04 #@! TO.N,GND*
X124460000Y-78740000D03*
G04 #@! TO.P,J2,3*
G04 #@! TO.N,/RB7*
X124460000Y-81280000D03*
G04 #@! TO.P,J2,4*
G04 #@! TO.N,/RB6*
X124460000Y-83820000D03*
G04 #@! TO.P,J2,5*
G04 #@! TO.N,/RB5*
X124460000Y-86360000D03*
G04 #@! TO.P,J2,6*
G04 #@! TO.N,/RB4*
X124460000Y-88900000D03*
G04 #@! TO.P,J2,7*
G04 #@! TO.N,/RB3*
X124460000Y-91440000D03*
G04 #@! TO.P,J2,8*
G04 #@! TO.N,/RB2*
X124460000Y-93980000D03*
G04 #@! TO.P,J2,9*
G04 #@! TO.N,/RB1*
X124460000Y-96520000D03*
G04 #@! TO.P,J2,10*
G04 #@! TO.N,/RB0*
X124460000Y-99060000D03*
G04 #@! TO.P,J2,11*
G04 #@! TO.N,/RC7*
X124460000Y-101600000D03*
G04 #@! TO.P,J2,12*
G04 #@! TO.N,/RC6*
X124460000Y-104140000D03*
G04 #@! TO.P,J2,13*
G04 #@! TO.N,/RC5*
X124460000Y-106680000D03*
G04 #@! TD*
G04 #@! TO.P,J1,13*
G04 #@! TO.N,/RC4*
X106680000Y-106680000D03*
G04 #@! TO.P,J1,12*
G04 #@! TO.N,/RC3*
X106680000Y-104140000D03*
G04 #@! TO.P,J1,11*
G04 #@! TO.N,/RC2*
X106680000Y-101600000D03*
G04 #@! TO.P,J1,10*
G04 #@! TO.N,/RC1*
X106680000Y-99060000D03*
G04 #@! TO.P,J1,9*
G04 #@! TO.N,/RC0*
X106680000Y-96520000D03*
G04 #@! TO.P,J1,8*
G04 #@! TO.N,/RA7*
X106680000Y-93980000D03*
G04 #@! TO.P,J1,7*
G04 #@! TO.N,/RA6*
X106680000Y-91440000D03*
G04 #@! TO.P,J1,6*
G04 #@! TO.N,/RA5*
X106680000Y-88900000D03*
G04 #@! TO.P,J1,5*
G04 #@! TO.N,/RA4*
X106680000Y-86360000D03*
G04 #@! TO.P,J1,4*
G04 #@! TO.N,/RA3*
X106680000Y-83820000D03*
G04 #@! TO.P,J1,3*
G04 #@! TO.N,/RA2*
X106680000Y-81280000D03*
G04 #@! TO.P,J1,2*
G04 #@! TO.N,/RA1*
X106680000Y-78740000D03*
D11*
G04 #@! TO.P,J1,1*
G04 #@! TO.N,/RA0*
X106680000Y-76200000D03*
G04 #@! TD*
D12*
G04 #@! TO.N,VCC*
X118530000Y-97270000D03*
X112390000Y-98950002D03*
X121170000Y-87410000D03*
X116940000Y-80420000D03*
G04 #@! TO.N,GND*
X121000000Y-91000000D03*
X111130000Y-87370000D03*
X121000000Y-107750000D03*
X121000000Y-107000000D03*
X121000000Y-106250000D03*
X111000000Y-107750000D03*
X111000000Y-107000000D03*
X111000000Y-106250000D03*
X118900000Y-95370000D03*
X111840000Y-83880000D03*
X109070000Y-106110000D03*
X120930000Y-94830000D03*
X121800000Y-102980000D03*
G04 #@! TO.N,/RC6*
X116050000Y-91890000D03*
X117490000Y-90660000D03*
G04 #@! TO.N,/RC7*
X117040000Y-93120000D03*
X119180000Y-90970000D03*
G04 #@! TO.N,/RB6*
X119390000Y-80755000D03*
X119410000Y-82070000D03*
G04 #@! TO.N,Net-(C5-Pad2)*
X115490000Y-82570000D03*
X115500000Y-93530000D03*
G04 #@! TD*
D13*
G04 #@! TO.N,VCC*
X114070002Y-97270000D02*
X112689999Y-98650003D01*
X112689999Y-98650003D02*
X112390000Y-98950002D01*
X118530000Y-97270000D02*
X114070002Y-97270000D01*
X121170000Y-84650000D02*
X116940000Y-80420000D01*
X121170000Y-87410000D02*
X121170000Y-84650000D01*
D14*
G04 #@! TO.N,/RC6*
X116050000Y-91890000D02*
X117280000Y-90660000D01*
X117280000Y-90660000D02*
X117490000Y-90660000D01*
G04 #@! TO.N,/RC7*
X119180000Y-90980000D02*
X119180000Y-90970000D01*
X117040000Y-93120000D02*
X119180000Y-90980000D01*
G04 #@! TO.N,/RB6*
X119390000Y-82050000D02*
X119410000Y-82070000D01*
X119390000Y-80755000D02*
X119390000Y-82050000D01*
G04 #@! TO.N,Net-(C5-Pad2)*
X115490000Y-82570000D02*
X115490000Y-93520000D01*
X115490000Y-93520000D02*
X115500000Y-93530000D01*
G04 #@! TD*
D15*
G04 #@! TO.N,GND*
G36*
X125725831Y-74454796D02*
X125917281Y-74582719D01*
X126045204Y-74774169D01*
X126098001Y-75039600D01*
X126098000Y-107460405D01*
X126045204Y-107725831D01*
X125917281Y-107917281D01*
X125725831Y-108045204D01*
X125460405Y-108098000D01*
X105539595Y-108098000D01*
X105274169Y-108045204D01*
X105082719Y-107917281D01*
X104954796Y-107725831D01*
X104902000Y-107460405D01*
X104902000Y-106680000D01*
X105479942Y-106680000D01*
X105571291Y-107139242D01*
X105831431Y-107528569D01*
X106220758Y-107788709D01*
X106564080Y-107857000D01*
X106795920Y-107857000D01*
X107139242Y-107788709D01*
X107528569Y-107528569D01*
X107788709Y-107139242D01*
X107880058Y-106680000D01*
X123259942Y-106680000D01*
X123351291Y-107139242D01*
X123611431Y-107528569D01*
X124000758Y-107788709D01*
X124344080Y-107857000D01*
X124575920Y-107857000D01*
X124919242Y-107788709D01*
X125308569Y-107528569D01*
X125568709Y-107139242D01*
X125660058Y-106680000D01*
X125568709Y-106220758D01*
X125308569Y-105831431D01*
X124919242Y-105571291D01*
X124575920Y-105503000D01*
X124344080Y-105503000D01*
X124000758Y-105571291D01*
X123611431Y-105831431D01*
X123351291Y-106220758D01*
X123259942Y-106680000D01*
X107880058Y-106680000D01*
X107788709Y-106220758D01*
X107528569Y-105831431D01*
X107139242Y-105571291D01*
X106795920Y-105503000D01*
X106564080Y-105503000D01*
X106220758Y-105571291D01*
X105831431Y-105831431D01*
X105571291Y-106220758D01*
X105479942Y-106680000D01*
X104902000Y-106680000D01*
X104902000Y-104140000D01*
X105479942Y-104140000D01*
X105571291Y-104599242D01*
X105831431Y-104988569D01*
X106220758Y-105248709D01*
X106564080Y-105317000D01*
X106795920Y-105317000D01*
X107139242Y-105248709D01*
X107528569Y-104988569D01*
X107788709Y-104599242D01*
X107880058Y-104140000D01*
X123259942Y-104140000D01*
X123351291Y-104599242D01*
X123611431Y-104988569D01*
X124000758Y-105248709D01*
X124344080Y-105317000D01*
X124575920Y-105317000D01*
X124919242Y-105248709D01*
X125308569Y-104988569D01*
X125568709Y-104599242D01*
X125660058Y-104140000D01*
X125568709Y-103680758D01*
X125308569Y-103291431D01*
X124919242Y-103031291D01*
X124575920Y-102963000D01*
X124344080Y-102963000D01*
X124000758Y-103031291D01*
X123611431Y-103291431D01*
X123351291Y-103680758D01*
X123259942Y-104140000D01*
X107880058Y-104140000D01*
X107788709Y-103680758D01*
X107528569Y-103291431D01*
X107139242Y-103031291D01*
X106795920Y-102963000D01*
X106564080Y-102963000D01*
X106220758Y-103031291D01*
X105831431Y-103291431D01*
X105571291Y-103680758D01*
X105479942Y-104140000D01*
X104902000Y-104140000D01*
X104902000Y-101600000D01*
X105479942Y-101600000D01*
X105571291Y-102059242D01*
X105831431Y-102448569D01*
X106220758Y-102708709D01*
X106564080Y-102777000D01*
X106795920Y-102777000D01*
X107139242Y-102708709D01*
X107528569Y-102448569D01*
X107788709Y-102059242D01*
X107880058Y-101600000D01*
X123259942Y-101600000D01*
X123351291Y-102059242D01*
X123611431Y-102448569D01*
X124000758Y-102708709D01*
X124344080Y-102777000D01*
X124575920Y-102777000D01*
X124919242Y-102708709D01*
X125308569Y-102448569D01*
X125568709Y-102059242D01*
X125660058Y-101600000D01*
X125568709Y-101140758D01*
X125308569Y-100751431D01*
X124919242Y-100491291D01*
X124575920Y-100423000D01*
X124344080Y-100423000D01*
X124000758Y-100491291D01*
X123611431Y-100751431D01*
X123351291Y-101140758D01*
X123259942Y-101600000D01*
X107880058Y-101600000D01*
X107788709Y-101140758D01*
X107528569Y-100751431D01*
X107139242Y-100491291D01*
X106795920Y-100423000D01*
X106564080Y-100423000D01*
X106220758Y-100491291D01*
X105831431Y-100751431D01*
X105571291Y-101140758D01*
X105479942Y-101600000D01*
X104902000Y-101600000D01*
X104902000Y-99060000D01*
X105479942Y-99060000D01*
X105571291Y-99519242D01*
X105831431Y-99908569D01*
X106220758Y-100168709D01*
X106564080Y-100237000D01*
X106795920Y-100237000D01*
X107139242Y-100168709D01*
X107528569Y-99908569D01*
X107788709Y-99519242D01*
X107880058Y-99060000D01*
X107833371Y-98825284D01*
X111763000Y-98825284D01*
X111763000Y-99074720D01*
X111858455Y-99305169D01*
X112034833Y-99481547D01*
X112265282Y-99577002D01*
X112514718Y-99577002D01*
X112745167Y-99481547D01*
X112921545Y-99305169D01*
X113017000Y-99074720D01*
X113017000Y-99060000D01*
X123259942Y-99060000D01*
X123351291Y-99519242D01*
X123611431Y-99908569D01*
X124000758Y-100168709D01*
X124344080Y-100237000D01*
X124575920Y-100237000D01*
X124919242Y-100168709D01*
X125308569Y-99908569D01*
X125568709Y-99519242D01*
X125660058Y-99060000D01*
X125568709Y-98600758D01*
X125308569Y-98211431D01*
X124919242Y-97951291D01*
X124575920Y-97883000D01*
X124344080Y-97883000D01*
X124000758Y-97951291D01*
X123611431Y-98211431D01*
X123351291Y-98600758D01*
X123259942Y-99060000D01*
X113017000Y-99060000D01*
X113017000Y-98997581D01*
X113060505Y-98954076D01*
X114267582Y-97747000D01*
X118120288Y-97747000D01*
X118174833Y-97801545D01*
X118405282Y-97897000D01*
X118654718Y-97897000D01*
X118885167Y-97801545D01*
X119061545Y-97625167D01*
X119157000Y-97394718D01*
X119157000Y-97145282D01*
X119061545Y-96914833D01*
X118885167Y-96738455D01*
X118654718Y-96643000D01*
X118405282Y-96643000D01*
X118174833Y-96738455D01*
X118120288Y-96793000D01*
X114116973Y-96793000D01*
X114070002Y-96783657D01*
X114023031Y-96793000D01*
X114023027Y-96793000D01*
X113883886Y-96820677D01*
X113726105Y-96926103D01*
X113699496Y-96965926D01*
X112385926Y-98279497D01*
X112342421Y-98323002D01*
X112265282Y-98323002D01*
X112034833Y-98418457D01*
X111858455Y-98594835D01*
X111763000Y-98825284D01*
X107833371Y-98825284D01*
X107788709Y-98600758D01*
X107528569Y-98211431D01*
X107139242Y-97951291D01*
X106795920Y-97883000D01*
X106564080Y-97883000D01*
X106220758Y-97951291D01*
X105831431Y-98211431D01*
X105571291Y-98600758D01*
X105479942Y-99060000D01*
X104902000Y-99060000D01*
X104902000Y-96520000D01*
X105479942Y-96520000D01*
X105571291Y-96979242D01*
X105831431Y-97368569D01*
X106220758Y-97628709D01*
X106564080Y-97697000D01*
X106795920Y-97697000D01*
X107139242Y-97628709D01*
X107528569Y-97368569D01*
X107788709Y-96979242D01*
X107880058Y-96520000D01*
X123259942Y-96520000D01*
X123351291Y-96979242D01*
X123611431Y-97368569D01*
X124000758Y-97628709D01*
X124344080Y-97697000D01*
X124575920Y-97697000D01*
X124919242Y-97628709D01*
X125308569Y-97368569D01*
X125568709Y-96979242D01*
X125660058Y-96520000D01*
X125568709Y-96060758D01*
X125308569Y-95671431D01*
X124919242Y-95411291D01*
X124575920Y-95343000D01*
X124344080Y-95343000D01*
X124000758Y-95411291D01*
X123611431Y-95671431D01*
X123351291Y-96060758D01*
X123259942Y-96520000D01*
X107880058Y-96520000D01*
X107788709Y-96060758D01*
X107528569Y-95671431D01*
X107139242Y-95411291D01*
X106795920Y-95343000D01*
X106564080Y-95343000D01*
X106220758Y-95411291D01*
X105831431Y-95671431D01*
X105571291Y-96060758D01*
X105479942Y-96520000D01*
X104902000Y-96520000D01*
X104902000Y-93980000D01*
X105479942Y-93980000D01*
X105571291Y-94439242D01*
X105831431Y-94828569D01*
X106220758Y-95088709D01*
X106564080Y-95157000D01*
X106795920Y-95157000D01*
X107139242Y-95088709D01*
X107528569Y-94828569D01*
X107788709Y-94439242D01*
X107880058Y-93980000D01*
X107788709Y-93520758D01*
X107528569Y-93131431D01*
X107139242Y-92871291D01*
X106795920Y-92803000D01*
X106564080Y-92803000D01*
X106220758Y-92871291D01*
X105831431Y-93131431D01*
X105571291Y-93520758D01*
X105479942Y-93980000D01*
X104902000Y-93980000D01*
X104902000Y-91440000D01*
X105479942Y-91440000D01*
X105571291Y-91899242D01*
X105831431Y-92288569D01*
X106220758Y-92548709D01*
X106564080Y-92617000D01*
X106795920Y-92617000D01*
X107139242Y-92548709D01*
X107528569Y-92288569D01*
X107788709Y-91899242D01*
X107880058Y-91440000D01*
X107788709Y-90980758D01*
X107528569Y-90591431D01*
X107139242Y-90331291D01*
X106795920Y-90263000D01*
X106564080Y-90263000D01*
X106220758Y-90331291D01*
X105831431Y-90591431D01*
X105571291Y-90980758D01*
X105479942Y-91440000D01*
X104902000Y-91440000D01*
X104902000Y-88900000D01*
X105479942Y-88900000D01*
X105571291Y-89359242D01*
X105831431Y-89748569D01*
X106220758Y-90008709D01*
X106564080Y-90077000D01*
X106795920Y-90077000D01*
X107139242Y-90008709D01*
X107528569Y-89748569D01*
X107788709Y-89359242D01*
X107880058Y-88900000D01*
X107788709Y-88440758D01*
X107528569Y-88051431D01*
X107139242Y-87791291D01*
X106795920Y-87723000D01*
X106564080Y-87723000D01*
X106220758Y-87791291D01*
X105831431Y-88051431D01*
X105571291Y-88440758D01*
X105479942Y-88900000D01*
X104902000Y-88900000D01*
X104902000Y-86360000D01*
X105479942Y-86360000D01*
X105571291Y-86819242D01*
X105831431Y-87208569D01*
X106220758Y-87468709D01*
X106564080Y-87537000D01*
X106795920Y-87537000D01*
X107139242Y-87468709D01*
X107528569Y-87208569D01*
X107788709Y-86819242D01*
X107880058Y-86360000D01*
X107788709Y-85900758D01*
X107528569Y-85511431D01*
X107139242Y-85251291D01*
X106795920Y-85183000D01*
X106564080Y-85183000D01*
X106220758Y-85251291D01*
X105831431Y-85511431D01*
X105571291Y-85900758D01*
X105479942Y-86360000D01*
X104902000Y-86360000D01*
X104902000Y-83820000D01*
X105479942Y-83820000D01*
X105571291Y-84279242D01*
X105831431Y-84668569D01*
X106220758Y-84928709D01*
X106564080Y-84997000D01*
X106795920Y-84997000D01*
X107139242Y-84928709D01*
X107528569Y-84668569D01*
X107788709Y-84279242D01*
X107880058Y-83820000D01*
X107788709Y-83360758D01*
X107528569Y-82971431D01*
X107139242Y-82711291D01*
X106795920Y-82643000D01*
X106564080Y-82643000D01*
X106220758Y-82711291D01*
X105831431Y-82971431D01*
X105571291Y-83360758D01*
X105479942Y-83820000D01*
X104902000Y-83820000D01*
X104902000Y-81280000D01*
X105479942Y-81280000D01*
X105571291Y-81739242D01*
X105831431Y-82128569D01*
X106220758Y-82388709D01*
X106564080Y-82457000D01*
X106795920Y-82457000D01*
X106854830Y-82445282D01*
X114863000Y-82445282D01*
X114863000Y-82694718D01*
X114958455Y-82925167D01*
X115088000Y-83054712D01*
X115088001Y-93055287D01*
X114968455Y-93174833D01*
X114873000Y-93405282D01*
X114873000Y-93654718D01*
X114968455Y-93885167D01*
X115144833Y-94061545D01*
X115375282Y-94157000D01*
X115624718Y-94157000D01*
X115855167Y-94061545D01*
X115936712Y-93980000D01*
X123259942Y-93980000D01*
X123351291Y-94439242D01*
X123611431Y-94828569D01*
X124000758Y-95088709D01*
X124344080Y-95157000D01*
X124575920Y-95157000D01*
X124919242Y-95088709D01*
X125308569Y-94828569D01*
X125568709Y-94439242D01*
X125660058Y-93980000D01*
X125568709Y-93520758D01*
X125308569Y-93131431D01*
X124919242Y-92871291D01*
X124575920Y-92803000D01*
X124344080Y-92803000D01*
X124000758Y-92871291D01*
X123611431Y-93131431D01*
X123351291Y-93520758D01*
X123259942Y-93980000D01*
X115936712Y-93980000D01*
X116031545Y-93885167D01*
X116127000Y-93654718D01*
X116127000Y-93405282D01*
X116031545Y-93174833D01*
X115892000Y-93035288D01*
X115892000Y-92995282D01*
X116413000Y-92995282D01*
X116413000Y-93244718D01*
X116508455Y-93475167D01*
X116684833Y-93651545D01*
X116915282Y-93747000D01*
X117164718Y-93747000D01*
X117395167Y-93651545D01*
X117571545Y-93475167D01*
X117667000Y-93244718D01*
X117667000Y-93061513D01*
X119131514Y-91597000D01*
X119304718Y-91597000D01*
X119535167Y-91501545D01*
X119596712Y-91440000D01*
X123259942Y-91440000D01*
X123351291Y-91899242D01*
X123611431Y-92288569D01*
X124000758Y-92548709D01*
X124344080Y-92617000D01*
X124575920Y-92617000D01*
X124919242Y-92548709D01*
X125308569Y-92288569D01*
X125568709Y-91899242D01*
X125660058Y-91440000D01*
X125568709Y-90980758D01*
X125308569Y-90591431D01*
X124919242Y-90331291D01*
X124575920Y-90263000D01*
X124344080Y-90263000D01*
X124000758Y-90331291D01*
X123611431Y-90591431D01*
X123351291Y-90980758D01*
X123259942Y-91440000D01*
X119596712Y-91440000D01*
X119711545Y-91325167D01*
X119807000Y-91094718D01*
X119807000Y-90845282D01*
X119711545Y-90614833D01*
X119535167Y-90438455D01*
X119304718Y-90343000D01*
X119055282Y-90343000D01*
X118824833Y-90438455D01*
X118648455Y-90614833D01*
X118553000Y-90845282D01*
X118553000Y-91038486D01*
X117098487Y-92493000D01*
X116915282Y-92493000D01*
X116684833Y-92588455D01*
X116508455Y-92764833D01*
X116413000Y-92995282D01*
X115892000Y-92995282D01*
X115892000Y-92503214D01*
X115925282Y-92517000D01*
X116174718Y-92517000D01*
X116405167Y-92421545D01*
X116581545Y-92245167D01*
X116677000Y-92014718D01*
X116677000Y-91831513D01*
X117263622Y-91244891D01*
X117365282Y-91287000D01*
X117614718Y-91287000D01*
X117845167Y-91191545D01*
X118021545Y-91015167D01*
X118117000Y-90784718D01*
X118117000Y-90535282D01*
X118021545Y-90304833D01*
X117845167Y-90128455D01*
X117614718Y-90033000D01*
X117365282Y-90033000D01*
X117134833Y-90128455D01*
X116958455Y-90304833D01*
X116881948Y-90489539D01*
X116108487Y-91263000D01*
X115925282Y-91263000D01*
X115892000Y-91276786D01*
X115892000Y-88900000D01*
X123259942Y-88900000D01*
X123351291Y-89359242D01*
X123611431Y-89748569D01*
X124000758Y-90008709D01*
X124344080Y-90077000D01*
X124575920Y-90077000D01*
X124919242Y-90008709D01*
X125308569Y-89748569D01*
X125568709Y-89359242D01*
X125660058Y-88900000D01*
X125568709Y-88440758D01*
X125308569Y-88051431D01*
X124919242Y-87791291D01*
X124575920Y-87723000D01*
X124344080Y-87723000D01*
X124000758Y-87791291D01*
X123611431Y-88051431D01*
X123351291Y-88440758D01*
X123259942Y-88900000D01*
X115892000Y-88900000D01*
X115892000Y-83054712D01*
X116021545Y-82925167D01*
X116117000Y-82694718D01*
X116117000Y-82445282D01*
X116021545Y-82214833D01*
X115845167Y-82038455D01*
X115614718Y-81943000D01*
X115365282Y-81943000D01*
X115134833Y-82038455D01*
X114958455Y-82214833D01*
X114863000Y-82445282D01*
X106854830Y-82445282D01*
X107139242Y-82388709D01*
X107528569Y-82128569D01*
X107788709Y-81739242D01*
X107880058Y-81280000D01*
X107788709Y-80820758D01*
X107528569Y-80431431D01*
X107324808Y-80295282D01*
X116313000Y-80295282D01*
X116313000Y-80544718D01*
X116408455Y-80775167D01*
X116584833Y-80951545D01*
X116815282Y-81047000D01*
X116892421Y-81047000D01*
X120693001Y-84847581D01*
X120693000Y-87000288D01*
X120638455Y-87054833D01*
X120543000Y-87285282D01*
X120543000Y-87534718D01*
X120638455Y-87765167D01*
X120814833Y-87941545D01*
X121045282Y-88037000D01*
X121294718Y-88037000D01*
X121525167Y-87941545D01*
X121701545Y-87765167D01*
X121797000Y-87534718D01*
X121797000Y-87285282D01*
X121701545Y-87054833D01*
X121647000Y-87000288D01*
X121647000Y-86360000D01*
X123259942Y-86360000D01*
X123351291Y-86819242D01*
X123611431Y-87208569D01*
X124000758Y-87468709D01*
X124344080Y-87537000D01*
X124575920Y-87537000D01*
X124919242Y-87468709D01*
X125308569Y-87208569D01*
X125568709Y-86819242D01*
X125660058Y-86360000D01*
X125568709Y-85900758D01*
X125308569Y-85511431D01*
X124919242Y-85251291D01*
X124575920Y-85183000D01*
X124344080Y-85183000D01*
X124000758Y-85251291D01*
X123611431Y-85511431D01*
X123351291Y-85900758D01*
X123259942Y-86360000D01*
X121647000Y-86360000D01*
X121647000Y-84696969D01*
X121656343Y-84649999D01*
X121647000Y-84603029D01*
X121647000Y-84603025D01*
X121619323Y-84463884D01*
X121513897Y-84306103D01*
X121474074Y-84279494D01*
X121014580Y-83820000D01*
X123259942Y-83820000D01*
X123351291Y-84279242D01*
X123611431Y-84668569D01*
X124000758Y-84928709D01*
X124344080Y-84997000D01*
X124575920Y-84997000D01*
X124919242Y-84928709D01*
X125308569Y-84668569D01*
X125568709Y-84279242D01*
X125660058Y-83820000D01*
X125568709Y-83360758D01*
X125308569Y-82971431D01*
X124919242Y-82711291D01*
X124575920Y-82643000D01*
X124344080Y-82643000D01*
X124000758Y-82711291D01*
X123611431Y-82971431D01*
X123351291Y-83360758D01*
X123259942Y-83820000D01*
X121014580Y-83820000D01*
X119780646Y-82586066D01*
X119941545Y-82425167D01*
X120037000Y-82194718D01*
X120037000Y-81945282D01*
X119941545Y-81714833D01*
X119792000Y-81565288D01*
X119792000Y-81239712D01*
X119921545Y-81110167D01*
X120017000Y-80879718D01*
X120017000Y-80630282D01*
X119921545Y-80399833D01*
X119745167Y-80223455D01*
X119514718Y-80128000D01*
X119265282Y-80128000D01*
X119034833Y-80223455D01*
X118858455Y-80399833D01*
X118763000Y-80630282D01*
X118763000Y-80879718D01*
X118858455Y-81110167D01*
X118988000Y-81239712D01*
X118988001Y-81605287D01*
X118893934Y-81699354D01*
X117567000Y-80372421D01*
X117567000Y-80295282D01*
X117471545Y-80064833D01*
X117295167Y-79888455D01*
X117064718Y-79793000D01*
X116815282Y-79793000D01*
X116584833Y-79888455D01*
X116408455Y-80064833D01*
X116313000Y-80295282D01*
X107324808Y-80295282D01*
X107139242Y-80171291D01*
X106795920Y-80103000D01*
X106564080Y-80103000D01*
X106220758Y-80171291D01*
X105831431Y-80431431D01*
X105571291Y-80820758D01*
X105479942Y-81280000D01*
X104902000Y-81280000D01*
X104902000Y-78740000D01*
X105479942Y-78740000D01*
X105571291Y-79199242D01*
X105831431Y-79588569D01*
X106220758Y-79848709D01*
X106564080Y-79917000D01*
X106795920Y-79917000D01*
X107139242Y-79848709D01*
X107528569Y-79588569D01*
X107788709Y-79199242D01*
X107809068Y-79096890D01*
X123018524Y-79096890D01*
X123188355Y-79506924D01*
X123578642Y-79935183D01*
X124057406Y-80160023D01*
X124000758Y-80171291D01*
X123611431Y-80431431D01*
X123351291Y-80820758D01*
X123259942Y-81280000D01*
X123351291Y-81739242D01*
X123611431Y-82128569D01*
X124000758Y-82388709D01*
X124344080Y-82457000D01*
X124575920Y-82457000D01*
X124919242Y-82388709D01*
X125308569Y-82128569D01*
X125568709Y-81739242D01*
X125660058Y-81280000D01*
X125568709Y-80820758D01*
X125308569Y-80431431D01*
X124919242Y-80171291D01*
X124862594Y-80160023D01*
X125341358Y-79935183D01*
X125731645Y-79506924D01*
X125901476Y-79096890D01*
X125780155Y-78867000D01*
X124587000Y-78867000D01*
X124587000Y-78887000D01*
X124333000Y-78887000D01*
X124333000Y-78867000D01*
X123139845Y-78867000D01*
X123018524Y-79096890D01*
X107809068Y-79096890D01*
X107880058Y-78740000D01*
X107809069Y-78383110D01*
X123018524Y-78383110D01*
X123139845Y-78613000D01*
X124333000Y-78613000D01*
X124333000Y-78593000D01*
X124587000Y-78593000D01*
X124587000Y-78613000D01*
X125780155Y-78613000D01*
X125901476Y-78383110D01*
X125731645Y-77973076D01*
X125341358Y-77544817D01*
X124997657Y-77383406D01*
X125310000Y-77383406D01*
X125437589Y-77358027D01*
X125545754Y-77285754D01*
X125618027Y-77177589D01*
X125643406Y-77050000D01*
X125643406Y-75350000D01*
X125618027Y-75222411D01*
X125545754Y-75114246D01*
X125437589Y-75041973D01*
X125310000Y-75016594D01*
X123610000Y-75016594D01*
X123482411Y-75041973D01*
X123374246Y-75114246D01*
X123301973Y-75222411D01*
X123276594Y-75350000D01*
X123276594Y-77050000D01*
X123301973Y-77177589D01*
X123374246Y-77285754D01*
X123482411Y-77358027D01*
X123610000Y-77383406D01*
X123922343Y-77383406D01*
X123578642Y-77544817D01*
X123188355Y-77973076D01*
X123018524Y-78383110D01*
X107809069Y-78383110D01*
X107788709Y-78280758D01*
X107528569Y-77891431D01*
X107139242Y-77631291D01*
X106795920Y-77563000D01*
X106564080Y-77563000D01*
X106220758Y-77631291D01*
X105831431Y-77891431D01*
X105571291Y-78280758D01*
X105479942Y-78740000D01*
X104902000Y-78740000D01*
X104902000Y-75350000D01*
X105496594Y-75350000D01*
X105496594Y-77050000D01*
X105521973Y-77177589D01*
X105594246Y-77285754D01*
X105702411Y-77358027D01*
X105830000Y-77383406D01*
X107530000Y-77383406D01*
X107657589Y-77358027D01*
X107765754Y-77285754D01*
X107838027Y-77177589D01*
X107863406Y-77050000D01*
X107863406Y-75350000D01*
X108036594Y-75350000D01*
X108036594Y-77050000D01*
X108061973Y-77177589D01*
X108134246Y-77285754D01*
X108242411Y-77358027D01*
X108370000Y-77383406D01*
X110070000Y-77383406D01*
X110197589Y-77358027D01*
X110305754Y-77285754D01*
X110378027Y-77177589D01*
X110403406Y-77050000D01*
X110403406Y-76200000D01*
X110559942Y-76200000D01*
X110651291Y-76659242D01*
X110911431Y-77048569D01*
X111300758Y-77308709D01*
X111644080Y-77377000D01*
X111875920Y-77377000D01*
X112219242Y-77308709D01*
X112608569Y-77048569D01*
X112868709Y-76659242D01*
X112879977Y-76602594D01*
X113104817Y-77081358D01*
X113533076Y-77471645D01*
X113943110Y-77641476D01*
X114173000Y-77520155D01*
X114173000Y-76327000D01*
X114153000Y-76327000D01*
X114153000Y-76073000D01*
X114173000Y-76073000D01*
X114173000Y-74879845D01*
X114427000Y-74879845D01*
X114427000Y-76073000D01*
X114447000Y-76073000D01*
X114447000Y-76327000D01*
X114427000Y-76327000D01*
X114427000Y-77520155D01*
X114656890Y-77641476D01*
X115066924Y-77471645D01*
X115495183Y-77081358D01*
X115720023Y-76602594D01*
X115731291Y-76659242D01*
X115991431Y-77048569D01*
X116380758Y-77308709D01*
X116724080Y-77377000D01*
X116955920Y-77377000D01*
X117299242Y-77308709D01*
X117688569Y-77048569D01*
X117948709Y-76659242D01*
X118040058Y-76200000D01*
X118179942Y-76200000D01*
X118271291Y-76659242D01*
X118531431Y-77048569D01*
X118920758Y-77308709D01*
X119264080Y-77377000D01*
X119495920Y-77377000D01*
X119839242Y-77308709D01*
X120228569Y-77048569D01*
X120488709Y-76659242D01*
X120580058Y-76200000D01*
X120719942Y-76200000D01*
X120811291Y-76659242D01*
X121071431Y-77048569D01*
X121460758Y-77308709D01*
X121804080Y-77377000D01*
X122035920Y-77377000D01*
X122379242Y-77308709D01*
X122768569Y-77048569D01*
X123028709Y-76659242D01*
X123120058Y-76200000D01*
X123028709Y-75740758D01*
X122768569Y-75351431D01*
X122379242Y-75091291D01*
X122035920Y-75023000D01*
X121804080Y-75023000D01*
X121460758Y-75091291D01*
X121071431Y-75351431D01*
X120811291Y-75740758D01*
X120719942Y-76200000D01*
X120580058Y-76200000D01*
X120488709Y-75740758D01*
X120228569Y-75351431D01*
X119839242Y-75091291D01*
X119495920Y-75023000D01*
X119264080Y-75023000D01*
X118920758Y-75091291D01*
X118531431Y-75351431D01*
X118271291Y-75740758D01*
X118179942Y-76200000D01*
X118040058Y-76200000D01*
X117948709Y-75740758D01*
X117688569Y-75351431D01*
X117299242Y-75091291D01*
X116955920Y-75023000D01*
X116724080Y-75023000D01*
X116380758Y-75091291D01*
X115991431Y-75351431D01*
X115731291Y-75740758D01*
X115720023Y-75797406D01*
X115495183Y-75318642D01*
X115066924Y-74928355D01*
X114656890Y-74758524D01*
X114427000Y-74879845D01*
X114173000Y-74879845D01*
X113943110Y-74758524D01*
X113533076Y-74928355D01*
X113104817Y-75318642D01*
X112879977Y-75797406D01*
X112868709Y-75740758D01*
X112608569Y-75351431D01*
X112219242Y-75091291D01*
X111875920Y-75023000D01*
X111644080Y-75023000D01*
X111300758Y-75091291D01*
X110911431Y-75351431D01*
X110651291Y-75740758D01*
X110559942Y-76200000D01*
X110403406Y-76200000D01*
X110403406Y-75350000D01*
X110378027Y-75222411D01*
X110305754Y-75114246D01*
X110197589Y-75041973D01*
X110070000Y-75016594D01*
X108370000Y-75016594D01*
X108242411Y-75041973D01*
X108134246Y-75114246D01*
X108061973Y-75222411D01*
X108036594Y-75350000D01*
X107863406Y-75350000D01*
X107838027Y-75222411D01*
X107765754Y-75114246D01*
X107657589Y-75041973D01*
X107530000Y-75016594D01*
X105830000Y-75016594D01*
X105702411Y-75041973D01*
X105594246Y-75114246D01*
X105521973Y-75222411D01*
X105496594Y-75350000D01*
X104902000Y-75350000D01*
X104902000Y-75039595D01*
X104954796Y-74774169D01*
X105082719Y-74582719D01*
X105274169Y-74454796D01*
X105539595Y-74402000D01*
X125460405Y-74402000D01*
X125725831Y-74454796D01*
X125725831Y-74454796D01*
G37*
X125725831Y-74454796D02*
X125917281Y-74582719D01*
X126045204Y-74774169D01*
X126098001Y-75039600D01*
X126098000Y-107460405D01*
X126045204Y-107725831D01*
X125917281Y-107917281D01*
X125725831Y-108045204D01*
X125460405Y-108098000D01*
X105539595Y-108098000D01*
X105274169Y-108045204D01*
X105082719Y-107917281D01*
X104954796Y-107725831D01*
X104902000Y-107460405D01*
X104902000Y-106680000D01*
X105479942Y-106680000D01*
X105571291Y-107139242D01*
X105831431Y-107528569D01*
X106220758Y-107788709D01*
X106564080Y-107857000D01*
X106795920Y-107857000D01*
X107139242Y-107788709D01*
X107528569Y-107528569D01*
X107788709Y-107139242D01*
X107880058Y-106680000D01*
X123259942Y-106680000D01*
X123351291Y-107139242D01*
X123611431Y-107528569D01*
X124000758Y-107788709D01*
X124344080Y-107857000D01*
X124575920Y-107857000D01*
X124919242Y-107788709D01*
X125308569Y-107528569D01*
X125568709Y-107139242D01*
X125660058Y-106680000D01*
X125568709Y-106220758D01*
X125308569Y-105831431D01*
X124919242Y-105571291D01*
X124575920Y-105503000D01*
X124344080Y-105503000D01*
X124000758Y-105571291D01*
X123611431Y-105831431D01*
X123351291Y-106220758D01*
X123259942Y-106680000D01*
X107880058Y-106680000D01*
X107788709Y-106220758D01*
X107528569Y-105831431D01*
X107139242Y-105571291D01*
X106795920Y-105503000D01*
X106564080Y-105503000D01*
X106220758Y-105571291D01*
X105831431Y-105831431D01*
X105571291Y-106220758D01*
X105479942Y-106680000D01*
X104902000Y-106680000D01*
X104902000Y-104140000D01*
X105479942Y-104140000D01*
X105571291Y-104599242D01*
X105831431Y-104988569D01*
X106220758Y-105248709D01*
X106564080Y-105317000D01*
X106795920Y-105317000D01*
X107139242Y-105248709D01*
X107528569Y-104988569D01*
X107788709Y-104599242D01*
X107880058Y-104140000D01*
X123259942Y-104140000D01*
X123351291Y-104599242D01*
X123611431Y-104988569D01*
X124000758Y-105248709D01*
X124344080Y-105317000D01*
X124575920Y-105317000D01*
X124919242Y-105248709D01*
X125308569Y-104988569D01*
X125568709Y-104599242D01*
X125660058Y-104140000D01*
X125568709Y-103680758D01*
X125308569Y-103291431D01*
X124919242Y-103031291D01*
X124575920Y-102963000D01*
X124344080Y-102963000D01*
X124000758Y-103031291D01*
X123611431Y-103291431D01*
X123351291Y-103680758D01*
X123259942Y-104140000D01*
X107880058Y-104140000D01*
X107788709Y-103680758D01*
X107528569Y-103291431D01*
X107139242Y-103031291D01*
X106795920Y-102963000D01*
X106564080Y-102963000D01*
X106220758Y-103031291D01*
X105831431Y-103291431D01*
X105571291Y-103680758D01*
X105479942Y-104140000D01*
X104902000Y-104140000D01*
X104902000Y-101600000D01*
X105479942Y-101600000D01*
X105571291Y-102059242D01*
X105831431Y-102448569D01*
X106220758Y-102708709D01*
X106564080Y-102777000D01*
X106795920Y-102777000D01*
X107139242Y-102708709D01*
X107528569Y-102448569D01*
X107788709Y-102059242D01*
X107880058Y-101600000D01*
X123259942Y-101600000D01*
X123351291Y-102059242D01*
X123611431Y-102448569D01*
X124000758Y-102708709D01*
X124344080Y-102777000D01*
X124575920Y-102777000D01*
X124919242Y-102708709D01*
X125308569Y-102448569D01*
X125568709Y-102059242D01*
X125660058Y-101600000D01*
X125568709Y-101140758D01*
X125308569Y-100751431D01*
X124919242Y-100491291D01*
X124575920Y-100423000D01*
X124344080Y-100423000D01*
X124000758Y-100491291D01*
X123611431Y-100751431D01*
X123351291Y-101140758D01*
X123259942Y-101600000D01*
X107880058Y-101600000D01*
X107788709Y-101140758D01*
X107528569Y-100751431D01*
X107139242Y-100491291D01*
X106795920Y-100423000D01*
X106564080Y-100423000D01*
X106220758Y-100491291D01*
X105831431Y-100751431D01*
X105571291Y-101140758D01*
X105479942Y-101600000D01*
X104902000Y-101600000D01*
X104902000Y-99060000D01*
X105479942Y-99060000D01*
X105571291Y-99519242D01*
X105831431Y-99908569D01*
X106220758Y-100168709D01*
X106564080Y-100237000D01*
X106795920Y-100237000D01*
X107139242Y-100168709D01*
X107528569Y-99908569D01*
X107788709Y-99519242D01*
X107880058Y-99060000D01*
X107833371Y-98825284D01*
X111763000Y-98825284D01*
X111763000Y-99074720D01*
X111858455Y-99305169D01*
X112034833Y-99481547D01*
X112265282Y-99577002D01*
X112514718Y-99577002D01*
X112745167Y-99481547D01*
X112921545Y-99305169D01*
X113017000Y-99074720D01*
X113017000Y-99060000D01*
X123259942Y-99060000D01*
X123351291Y-99519242D01*
X123611431Y-99908569D01*
X124000758Y-100168709D01*
X124344080Y-100237000D01*
X124575920Y-100237000D01*
X124919242Y-100168709D01*
X125308569Y-99908569D01*
X125568709Y-99519242D01*
X125660058Y-99060000D01*
X125568709Y-98600758D01*
X125308569Y-98211431D01*
X124919242Y-97951291D01*
X124575920Y-97883000D01*
X124344080Y-97883000D01*
X124000758Y-97951291D01*
X123611431Y-98211431D01*
X123351291Y-98600758D01*
X123259942Y-99060000D01*
X113017000Y-99060000D01*
X113017000Y-98997581D01*
X113060505Y-98954076D01*
X114267582Y-97747000D01*
X118120288Y-97747000D01*
X118174833Y-97801545D01*
X118405282Y-97897000D01*
X118654718Y-97897000D01*
X118885167Y-97801545D01*
X119061545Y-97625167D01*
X119157000Y-97394718D01*
X119157000Y-97145282D01*
X119061545Y-96914833D01*
X118885167Y-96738455D01*
X118654718Y-96643000D01*
X118405282Y-96643000D01*
X118174833Y-96738455D01*
X118120288Y-96793000D01*
X114116973Y-96793000D01*
X114070002Y-96783657D01*
X114023031Y-96793000D01*
X114023027Y-96793000D01*
X113883886Y-96820677D01*
X113726105Y-96926103D01*
X113699496Y-96965926D01*
X112385926Y-98279497D01*
X112342421Y-98323002D01*
X112265282Y-98323002D01*
X112034833Y-98418457D01*
X111858455Y-98594835D01*
X111763000Y-98825284D01*
X107833371Y-98825284D01*
X107788709Y-98600758D01*
X107528569Y-98211431D01*
X107139242Y-97951291D01*
X106795920Y-97883000D01*
X106564080Y-97883000D01*
X106220758Y-97951291D01*
X105831431Y-98211431D01*
X105571291Y-98600758D01*
X105479942Y-99060000D01*
X104902000Y-99060000D01*
X104902000Y-96520000D01*
X105479942Y-96520000D01*
X105571291Y-96979242D01*
X105831431Y-97368569D01*
X106220758Y-97628709D01*
X106564080Y-97697000D01*
X106795920Y-97697000D01*
X107139242Y-97628709D01*
X107528569Y-97368569D01*
X107788709Y-96979242D01*
X107880058Y-96520000D01*
X123259942Y-96520000D01*
X123351291Y-96979242D01*
X123611431Y-97368569D01*
X124000758Y-97628709D01*
X124344080Y-97697000D01*
X124575920Y-97697000D01*
X124919242Y-97628709D01*
X125308569Y-97368569D01*
X125568709Y-96979242D01*
X125660058Y-96520000D01*
X125568709Y-96060758D01*
X125308569Y-95671431D01*
X124919242Y-95411291D01*
X124575920Y-95343000D01*
X124344080Y-95343000D01*
X124000758Y-95411291D01*
X123611431Y-95671431D01*
X123351291Y-96060758D01*
X123259942Y-96520000D01*
X107880058Y-96520000D01*
X107788709Y-96060758D01*
X107528569Y-95671431D01*
X107139242Y-95411291D01*
X106795920Y-95343000D01*
X106564080Y-95343000D01*
X106220758Y-95411291D01*
X105831431Y-95671431D01*
X105571291Y-96060758D01*
X105479942Y-96520000D01*
X104902000Y-96520000D01*
X104902000Y-93980000D01*
X105479942Y-93980000D01*
X105571291Y-94439242D01*
X105831431Y-94828569D01*
X106220758Y-95088709D01*
X106564080Y-95157000D01*
X106795920Y-95157000D01*
X107139242Y-95088709D01*
X107528569Y-94828569D01*
X107788709Y-94439242D01*
X107880058Y-93980000D01*
X107788709Y-93520758D01*
X107528569Y-93131431D01*
X107139242Y-92871291D01*
X106795920Y-92803000D01*
X106564080Y-92803000D01*
X106220758Y-92871291D01*
X105831431Y-93131431D01*
X105571291Y-93520758D01*
X105479942Y-93980000D01*
X104902000Y-93980000D01*
X104902000Y-91440000D01*
X105479942Y-91440000D01*
X105571291Y-91899242D01*
X105831431Y-92288569D01*
X106220758Y-92548709D01*
X106564080Y-92617000D01*
X106795920Y-92617000D01*
X107139242Y-92548709D01*
X107528569Y-92288569D01*
X107788709Y-91899242D01*
X107880058Y-91440000D01*
X107788709Y-90980758D01*
X107528569Y-90591431D01*
X107139242Y-90331291D01*
X106795920Y-90263000D01*
X106564080Y-90263000D01*
X106220758Y-90331291D01*
X105831431Y-90591431D01*
X105571291Y-90980758D01*
X105479942Y-91440000D01*
X104902000Y-91440000D01*
X104902000Y-88900000D01*
X105479942Y-88900000D01*
X105571291Y-89359242D01*
X105831431Y-89748569D01*
X106220758Y-90008709D01*
X106564080Y-90077000D01*
X106795920Y-90077000D01*
X107139242Y-90008709D01*
X107528569Y-89748569D01*
X107788709Y-89359242D01*
X107880058Y-88900000D01*
X107788709Y-88440758D01*
X107528569Y-88051431D01*
X107139242Y-87791291D01*
X106795920Y-87723000D01*
X106564080Y-87723000D01*
X106220758Y-87791291D01*
X105831431Y-88051431D01*
X105571291Y-88440758D01*
X105479942Y-88900000D01*
X104902000Y-88900000D01*
X104902000Y-86360000D01*
X105479942Y-86360000D01*
X105571291Y-86819242D01*
X105831431Y-87208569D01*
X106220758Y-87468709D01*
X106564080Y-87537000D01*
X106795920Y-87537000D01*
X107139242Y-87468709D01*
X107528569Y-87208569D01*
X107788709Y-86819242D01*
X107880058Y-86360000D01*
X107788709Y-85900758D01*
X107528569Y-85511431D01*
X107139242Y-85251291D01*
X106795920Y-85183000D01*
X106564080Y-85183000D01*
X106220758Y-85251291D01*
X105831431Y-85511431D01*
X105571291Y-85900758D01*
X105479942Y-86360000D01*
X104902000Y-86360000D01*
X104902000Y-83820000D01*
X105479942Y-83820000D01*
X105571291Y-84279242D01*
X105831431Y-84668569D01*
X106220758Y-84928709D01*
X106564080Y-84997000D01*
X106795920Y-84997000D01*
X107139242Y-84928709D01*
X107528569Y-84668569D01*
X107788709Y-84279242D01*
X107880058Y-83820000D01*
X107788709Y-83360758D01*
X107528569Y-82971431D01*
X107139242Y-82711291D01*
X106795920Y-82643000D01*
X106564080Y-82643000D01*
X106220758Y-82711291D01*
X105831431Y-82971431D01*
X105571291Y-83360758D01*
X105479942Y-83820000D01*
X104902000Y-83820000D01*
X104902000Y-81280000D01*
X105479942Y-81280000D01*
X105571291Y-81739242D01*
X105831431Y-82128569D01*
X106220758Y-82388709D01*
X106564080Y-82457000D01*
X106795920Y-82457000D01*
X106854830Y-82445282D01*
X114863000Y-82445282D01*
X114863000Y-82694718D01*
X114958455Y-82925167D01*
X115088000Y-83054712D01*
X115088001Y-93055287D01*
X114968455Y-93174833D01*
X114873000Y-93405282D01*
X114873000Y-93654718D01*
X114968455Y-93885167D01*
X115144833Y-94061545D01*
X115375282Y-94157000D01*
X115624718Y-94157000D01*
X115855167Y-94061545D01*
X115936712Y-93980000D01*
X123259942Y-93980000D01*
X123351291Y-94439242D01*
X123611431Y-94828569D01*
X124000758Y-95088709D01*
X124344080Y-95157000D01*
X124575920Y-95157000D01*
X124919242Y-95088709D01*
X125308569Y-94828569D01*
X125568709Y-94439242D01*
X125660058Y-93980000D01*
X125568709Y-93520758D01*
X125308569Y-93131431D01*
X124919242Y-92871291D01*
X124575920Y-92803000D01*
X124344080Y-92803000D01*
X124000758Y-92871291D01*
X123611431Y-93131431D01*
X123351291Y-93520758D01*
X123259942Y-93980000D01*
X115936712Y-93980000D01*
X116031545Y-93885167D01*
X116127000Y-93654718D01*
X116127000Y-93405282D01*
X116031545Y-93174833D01*
X115892000Y-93035288D01*
X115892000Y-92995282D01*
X116413000Y-92995282D01*
X116413000Y-93244718D01*
X116508455Y-93475167D01*
X116684833Y-93651545D01*
X116915282Y-93747000D01*
X117164718Y-93747000D01*
X117395167Y-93651545D01*
X117571545Y-93475167D01*
X117667000Y-93244718D01*
X117667000Y-93061513D01*
X119131514Y-91597000D01*
X119304718Y-91597000D01*
X119535167Y-91501545D01*
X119596712Y-91440000D01*
X123259942Y-91440000D01*
X123351291Y-91899242D01*
X123611431Y-92288569D01*
X124000758Y-92548709D01*
X124344080Y-92617000D01*
X124575920Y-92617000D01*
X124919242Y-92548709D01*
X125308569Y-92288569D01*
X125568709Y-91899242D01*
X125660058Y-91440000D01*
X125568709Y-90980758D01*
X125308569Y-90591431D01*
X124919242Y-90331291D01*
X124575920Y-90263000D01*
X124344080Y-90263000D01*
X124000758Y-90331291D01*
X123611431Y-90591431D01*
X123351291Y-90980758D01*
X123259942Y-91440000D01*
X119596712Y-91440000D01*
X119711545Y-91325167D01*
X119807000Y-91094718D01*
X119807000Y-90845282D01*
X119711545Y-90614833D01*
X119535167Y-90438455D01*
X119304718Y-90343000D01*
X119055282Y-90343000D01*
X118824833Y-90438455D01*
X118648455Y-90614833D01*
X118553000Y-90845282D01*
X118553000Y-91038486D01*
X117098487Y-92493000D01*
X116915282Y-92493000D01*
X116684833Y-92588455D01*
X116508455Y-92764833D01*
X116413000Y-92995282D01*
X115892000Y-92995282D01*
X115892000Y-92503214D01*
X115925282Y-92517000D01*
X116174718Y-92517000D01*
X116405167Y-92421545D01*
X116581545Y-92245167D01*
X116677000Y-92014718D01*
X116677000Y-91831513D01*
X117263622Y-91244891D01*
X117365282Y-91287000D01*
X117614718Y-91287000D01*
X117845167Y-91191545D01*
X118021545Y-91015167D01*
X118117000Y-90784718D01*
X118117000Y-90535282D01*
X118021545Y-90304833D01*
X117845167Y-90128455D01*
X117614718Y-90033000D01*
X117365282Y-90033000D01*
X117134833Y-90128455D01*
X116958455Y-90304833D01*
X116881948Y-90489539D01*
X116108487Y-91263000D01*
X115925282Y-91263000D01*
X115892000Y-91276786D01*
X115892000Y-88900000D01*
X123259942Y-88900000D01*
X123351291Y-89359242D01*
X123611431Y-89748569D01*
X124000758Y-90008709D01*
X124344080Y-90077000D01*
X124575920Y-90077000D01*
X124919242Y-90008709D01*
X125308569Y-89748569D01*
X125568709Y-89359242D01*
X125660058Y-88900000D01*
X125568709Y-88440758D01*
X125308569Y-88051431D01*
X124919242Y-87791291D01*
X124575920Y-87723000D01*
X124344080Y-87723000D01*
X124000758Y-87791291D01*
X123611431Y-88051431D01*
X123351291Y-88440758D01*
X123259942Y-88900000D01*
X115892000Y-88900000D01*
X115892000Y-83054712D01*
X116021545Y-82925167D01*
X116117000Y-82694718D01*
X116117000Y-82445282D01*
X116021545Y-82214833D01*
X115845167Y-82038455D01*
X115614718Y-81943000D01*
X115365282Y-81943000D01*
X115134833Y-82038455D01*
X114958455Y-82214833D01*
X114863000Y-82445282D01*
X106854830Y-82445282D01*
X107139242Y-82388709D01*
X107528569Y-82128569D01*
X107788709Y-81739242D01*
X107880058Y-81280000D01*
X107788709Y-80820758D01*
X107528569Y-80431431D01*
X107324808Y-80295282D01*
X116313000Y-80295282D01*
X116313000Y-80544718D01*
X116408455Y-80775167D01*
X116584833Y-80951545D01*
X116815282Y-81047000D01*
X116892421Y-81047000D01*
X120693001Y-84847581D01*
X120693000Y-87000288D01*
X120638455Y-87054833D01*
X120543000Y-87285282D01*
X120543000Y-87534718D01*
X120638455Y-87765167D01*
X120814833Y-87941545D01*
X121045282Y-88037000D01*
X121294718Y-88037000D01*
X121525167Y-87941545D01*
X121701545Y-87765167D01*
X121797000Y-87534718D01*
X121797000Y-87285282D01*
X121701545Y-87054833D01*
X121647000Y-87000288D01*
X121647000Y-86360000D01*
X123259942Y-86360000D01*
X123351291Y-86819242D01*
X123611431Y-87208569D01*
X124000758Y-87468709D01*
X124344080Y-87537000D01*
X124575920Y-87537000D01*
X124919242Y-87468709D01*
X125308569Y-87208569D01*
X125568709Y-86819242D01*
X125660058Y-86360000D01*
X125568709Y-85900758D01*
X125308569Y-85511431D01*
X124919242Y-85251291D01*
X124575920Y-85183000D01*
X124344080Y-85183000D01*
X124000758Y-85251291D01*
X123611431Y-85511431D01*
X123351291Y-85900758D01*
X123259942Y-86360000D01*
X121647000Y-86360000D01*
X121647000Y-84696969D01*
X121656343Y-84649999D01*
X121647000Y-84603029D01*
X121647000Y-84603025D01*
X121619323Y-84463884D01*
X121513897Y-84306103D01*
X121474074Y-84279494D01*
X121014580Y-83820000D01*
X123259942Y-83820000D01*
X123351291Y-84279242D01*
X123611431Y-84668569D01*
X124000758Y-84928709D01*
X124344080Y-84997000D01*
X124575920Y-84997000D01*
X124919242Y-84928709D01*
X125308569Y-84668569D01*
X125568709Y-84279242D01*
X125660058Y-83820000D01*
X125568709Y-83360758D01*
X125308569Y-82971431D01*
X124919242Y-82711291D01*
X124575920Y-82643000D01*
X124344080Y-82643000D01*
X124000758Y-82711291D01*
X123611431Y-82971431D01*
X123351291Y-83360758D01*
X123259942Y-83820000D01*
X121014580Y-83820000D01*
X119780646Y-82586066D01*
X119941545Y-82425167D01*
X120037000Y-82194718D01*
X120037000Y-81945282D01*
X119941545Y-81714833D01*
X119792000Y-81565288D01*
X119792000Y-81239712D01*
X119921545Y-81110167D01*
X120017000Y-80879718D01*
X120017000Y-80630282D01*
X119921545Y-80399833D01*
X119745167Y-80223455D01*
X119514718Y-80128000D01*
X119265282Y-80128000D01*
X119034833Y-80223455D01*
X118858455Y-80399833D01*
X118763000Y-80630282D01*
X118763000Y-80879718D01*
X118858455Y-81110167D01*
X118988000Y-81239712D01*
X118988001Y-81605287D01*
X118893934Y-81699354D01*
X117567000Y-80372421D01*
X117567000Y-80295282D01*
X117471545Y-80064833D01*
X117295167Y-79888455D01*
X117064718Y-79793000D01*
X116815282Y-79793000D01*
X116584833Y-79888455D01*
X116408455Y-80064833D01*
X116313000Y-80295282D01*
X107324808Y-80295282D01*
X107139242Y-80171291D01*
X106795920Y-80103000D01*
X106564080Y-80103000D01*
X106220758Y-80171291D01*
X105831431Y-80431431D01*
X105571291Y-80820758D01*
X105479942Y-81280000D01*
X104902000Y-81280000D01*
X104902000Y-78740000D01*
X105479942Y-78740000D01*
X105571291Y-79199242D01*
X105831431Y-79588569D01*
X106220758Y-79848709D01*
X106564080Y-79917000D01*
X106795920Y-79917000D01*
X107139242Y-79848709D01*
X107528569Y-79588569D01*
X107788709Y-79199242D01*
X107809068Y-79096890D01*
X123018524Y-79096890D01*
X123188355Y-79506924D01*
X123578642Y-79935183D01*
X124057406Y-80160023D01*
X124000758Y-80171291D01*
X123611431Y-80431431D01*
X123351291Y-80820758D01*
X123259942Y-81280000D01*
X123351291Y-81739242D01*
X123611431Y-82128569D01*
X124000758Y-82388709D01*
X124344080Y-82457000D01*
X124575920Y-82457000D01*
X124919242Y-82388709D01*
X125308569Y-82128569D01*
X125568709Y-81739242D01*
X125660058Y-81280000D01*
X125568709Y-80820758D01*
X125308569Y-80431431D01*
X124919242Y-80171291D01*
X124862594Y-80160023D01*
X125341358Y-79935183D01*
X125731645Y-79506924D01*
X125901476Y-79096890D01*
X125780155Y-78867000D01*
X124587000Y-78867000D01*
X124587000Y-78887000D01*
X124333000Y-78887000D01*
X124333000Y-78867000D01*
X123139845Y-78867000D01*
X123018524Y-79096890D01*
X107809068Y-79096890D01*
X107880058Y-78740000D01*
X107809069Y-78383110D01*
X123018524Y-78383110D01*
X123139845Y-78613000D01*
X124333000Y-78613000D01*
X124333000Y-78593000D01*
X124587000Y-78593000D01*
X124587000Y-78613000D01*
X125780155Y-78613000D01*
X125901476Y-78383110D01*
X125731645Y-77973076D01*
X125341358Y-77544817D01*
X124997657Y-77383406D01*
X125310000Y-77383406D01*
X125437589Y-77358027D01*
X125545754Y-77285754D01*
X125618027Y-77177589D01*
X125643406Y-77050000D01*
X125643406Y-75350000D01*
X125618027Y-75222411D01*
X125545754Y-75114246D01*
X125437589Y-75041973D01*
X125310000Y-75016594D01*
X123610000Y-75016594D01*
X123482411Y-75041973D01*
X123374246Y-75114246D01*
X123301973Y-75222411D01*
X123276594Y-75350000D01*
X123276594Y-77050000D01*
X123301973Y-77177589D01*
X123374246Y-77285754D01*
X123482411Y-77358027D01*
X123610000Y-77383406D01*
X123922343Y-77383406D01*
X123578642Y-77544817D01*
X123188355Y-77973076D01*
X123018524Y-78383110D01*
X107809069Y-78383110D01*
X107788709Y-78280758D01*
X107528569Y-77891431D01*
X107139242Y-77631291D01*
X106795920Y-77563000D01*
X106564080Y-77563000D01*
X106220758Y-77631291D01*
X105831431Y-77891431D01*
X105571291Y-78280758D01*
X105479942Y-78740000D01*
X104902000Y-78740000D01*
X104902000Y-75350000D01*
X105496594Y-75350000D01*
X105496594Y-77050000D01*
X105521973Y-77177589D01*
X105594246Y-77285754D01*
X105702411Y-77358027D01*
X105830000Y-77383406D01*
X107530000Y-77383406D01*
X107657589Y-77358027D01*
X107765754Y-77285754D01*
X107838027Y-77177589D01*
X107863406Y-77050000D01*
X107863406Y-75350000D01*
X108036594Y-75350000D01*
X108036594Y-77050000D01*
X108061973Y-77177589D01*
X108134246Y-77285754D01*
X108242411Y-77358027D01*
X108370000Y-77383406D01*
X110070000Y-77383406D01*
X110197589Y-77358027D01*
X110305754Y-77285754D01*
X110378027Y-77177589D01*
X110403406Y-77050000D01*
X110403406Y-76200000D01*
X110559942Y-76200000D01*
X110651291Y-76659242D01*
X110911431Y-77048569D01*
X111300758Y-77308709D01*
X111644080Y-77377000D01*
X111875920Y-77377000D01*
X112219242Y-77308709D01*
X112608569Y-77048569D01*
X112868709Y-76659242D01*
X112879977Y-76602594D01*
X113104817Y-77081358D01*
X113533076Y-77471645D01*
X113943110Y-77641476D01*
X114173000Y-77520155D01*
X114173000Y-76327000D01*
X114153000Y-76327000D01*
X114153000Y-76073000D01*
X114173000Y-76073000D01*
X114173000Y-74879845D01*
X114427000Y-74879845D01*
X114427000Y-76073000D01*
X114447000Y-76073000D01*
X114447000Y-76327000D01*
X114427000Y-76327000D01*
X114427000Y-77520155D01*
X114656890Y-77641476D01*
X115066924Y-77471645D01*
X115495183Y-77081358D01*
X115720023Y-76602594D01*
X115731291Y-76659242D01*
X115991431Y-77048569D01*
X116380758Y-77308709D01*
X116724080Y-77377000D01*
X116955920Y-77377000D01*
X117299242Y-77308709D01*
X117688569Y-77048569D01*
X117948709Y-76659242D01*
X118040058Y-76200000D01*
X118179942Y-76200000D01*
X118271291Y-76659242D01*
X118531431Y-77048569D01*
X118920758Y-77308709D01*
X119264080Y-77377000D01*
X119495920Y-77377000D01*
X119839242Y-77308709D01*
X120228569Y-77048569D01*
X120488709Y-76659242D01*
X120580058Y-76200000D01*
X120719942Y-76200000D01*
X120811291Y-76659242D01*
X121071431Y-77048569D01*
X121460758Y-77308709D01*
X121804080Y-77377000D01*
X122035920Y-77377000D01*
X122379242Y-77308709D01*
X122768569Y-77048569D01*
X123028709Y-76659242D01*
X123120058Y-76200000D01*
X123028709Y-75740758D01*
X122768569Y-75351431D01*
X122379242Y-75091291D01*
X122035920Y-75023000D01*
X121804080Y-75023000D01*
X121460758Y-75091291D01*
X121071431Y-75351431D01*
X120811291Y-75740758D01*
X120719942Y-76200000D01*
X120580058Y-76200000D01*
X120488709Y-75740758D01*
X120228569Y-75351431D01*
X119839242Y-75091291D01*
X119495920Y-75023000D01*
X119264080Y-75023000D01*
X118920758Y-75091291D01*
X118531431Y-75351431D01*
X118271291Y-75740758D01*
X118179942Y-76200000D01*
X118040058Y-76200000D01*
X117948709Y-75740758D01*
X117688569Y-75351431D01*
X117299242Y-75091291D01*
X116955920Y-75023000D01*
X116724080Y-75023000D01*
X116380758Y-75091291D01*
X115991431Y-75351431D01*
X115731291Y-75740758D01*
X115720023Y-75797406D01*
X115495183Y-75318642D01*
X115066924Y-74928355D01*
X114656890Y-74758524D01*
X114427000Y-74879845D01*
X114173000Y-74879845D01*
X113943110Y-74758524D01*
X113533076Y-74928355D01*
X113104817Y-75318642D01*
X112879977Y-75797406D01*
X112868709Y-75740758D01*
X112608569Y-75351431D01*
X112219242Y-75091291D01*
X111875920Y-75023000D01*
X111644080Y-75023000D01*
X111300758Y-75091291D01*
X110911431Y-75351431D01*
X110651291Y-75740758D01*
X110559942Y-76200000D01*
X110403406Y-76200000D01*
X110403406Y-75350000D01*
X110378027Y-75222411D01*
X110305754Y-75114246D01*
X110197589Y-75041973D01*
X110070000Y-75016594D01*
X108370000Y-75016594D01*
X108242411Y-75041973D01*
X108134246Y-75114246D01*
X108061973Y-75222411D01*
X108036594Y-75350000D01*
X107863406Y-75350000D01*
X107838027Y-75222411D01*
X107765754Y-75114246D01*
X107657589Y-75041973D01*
X107530000Y-75016594D01*
X105830000Y-75016594D01*
X105702411Y-75041973D01*
X105594246Y-75114246D01*
X105521973Y-75222411D01*
X105496594Y-75350000D01*
X104902000Y-75350000D01*
X104902000Y-75039595D01*
X104954796Y-74774169D01*
X105082719Y-74582719D01*
X105274169Y-74454796D01*
X105539595Y-74402000D01*
X125460405Y-74402000D01*
X125725831Y-74454796D01*
G04 #@! TD*
M02*
