G04 #@! TF.GenerationSoftware,KiCad,Pcbnew,5.0.1-33cea8e~68~ubuntu18.04.1*
G04 #@! TF.CreationDate,2018-10-25T12:38:31+11:00*
G04 #@! TF.ProjectId,PIC18F24K40,50494331384632344B34302E6B696361,rev?*
G04 #@! TF.SameCoordinates,Original*
G04 #@! TF.FileFunction,Legend,Top*
G04 #@! TF.FilePolarity,Positive*
%FSLAX46Y46*%
G04 Gerber Fmt 4.6, Leading zero omitted, Abs format (unit mm)*
G04 Created by KiCad (PCBNEW 5.0.1-33cea8e~68~ubuntu18.04.1) date Thu 25 Oct 2018 12:38:31 AEDT*
%MOMM*%
%LPD*%
G01*
G04 APERTURE LIST*
%ADD10C,0.120000*%
%ADD11C,0.150000*%
G04 APERTURE END LIST*
D10*
G04 #@! TO.C,FB1*
X112510000Y-100828733D02*
X112510000Y-101171267D01*
X111490000Y-100828733D02*
X111490000Y-101171267D01*
G04 #@! TO.C,C5*
X115510000Y-80671267D02*
X115510000Y-80328733D01*
X114490000Y-80671267D02*
X114490000Y-80328733D01*
G04 #@! TO.C,C4*
X118990000Y-97421267D02*
X118990000Y-97078733D01*
X120010000Y-97421267D02*
X120010000Y-97078733D01*
G04 #@! TO.C,C3*
X118510000Y-101171267D02*
X118510000Y-100828733D01*
X117490000Y-101171267D02*
X117490000Y-100828733D01*
G04 #@! TO.C,C2*
X112990000Y-101171267D02*
X112990000Y-100828733D01*
X114010000Y-101171267D02*
X114010000Y-100828733D01*
G04 #@! TO.C,R3*
X114010000Y-80328733D02*
X114010000Y-80671267D01*
X112990000Y-80328733D02*
X112990000Y-80671267D01*
G04 #@! TO.C,R2*
X115990000Y-100828733D02*
X115990000Y-101171267D01*
X117010000Y-100828733D02*
X117010000Y-101171267D01*
G04 #@! TO.C,R1*
X115510000Y-100828733D02*
X115510000Y-101171267D01*
X114490000Y-100828733D02*
X114490000Y-101171267D01*
G04 #@! TO.C,J4*
X119810000Y-103790000D02*
X119430000Y-103790000D01*
X119810000Y-107840000D02*
X119810000Y-108100000D01*
X119810000Y-103790000D02*
X119810000Y-105560000D01*
X112190000Y-103790000D02*
X112570000Y-103790000D01*
X112190000Y-105560000D02*
X112190000Y-103790000D01*
X112190000Y-108100000D02*
X112190000Y-107840000D01*
G04 #@! TO.C,U1*
X116885000Y-94390000D02*
X117610000Y-94390000D01*
X117610000Y-94390000D02*
X117610000Y-95115000D01*
X114115000Y-98610000D02*
X113390000Y-98610000D01*
X113390000Y-98610000D02*
X113390000Y-97885000D01*
X116885000Y-98610000D02*
X117610000Y-98610000D01*
X117610000Y-98610000D02*
X117610000Y-97885000D01*
X114115000Y-94390000D02*
X113390000Y-94390000D01*
G04 #@! TO.C,J3*
X107890000Y-77530000D02*
X107890000Y-76200000D01*
X109220000Y-77530000D02*
X107890000Y-77530000D01*
X110490000Y-77530000D02*
X110490000Y-74870000D01*
X110490000Y-74870000D02*
X123250000Y-74870000D01*
X110490000Y-77530000D02*
X123250000Y-77530000D01*
X123250000Y-77530000D02*
X123250000Y-74870000D01*
D11*
X108680000Y-78930000D02*
X110020000Y-78930000D01*
X110020000Y-78930000D02*
X109220000Y-78130000D01*
X109220000Y-78130000D02*
X108420000Y-78930000D01*
X108420000Y-78930000D02*
X108690000Y-78930000D01*
D10*
G04 #@! TO.C,C1*
X120690000Y-88598733D02*
X120690000Y-88941267D01*
X119670000Y-88598733D02*
X119670000Y-88941267D01*
G04 #@! TO.C,J2*
X123130000Y-74870000D02*
X124460000Y-74870000D01*
X123130000Y-76200000D02*
X123130000Y-74870000D01*
X123130000Y-77470000D02*
X125790000Y-77470000D01*
X125790000Y-77470000D02*
X125790000Y-108010000D01*
X123130000Y-77470000D02*
X123130000Y-108010000D01*
X123130000Y-108010000D02*
X125790000Y-108010000D01*
G04 #@! TO.C,J1*
X105350000Y-74870000D02*
X106680000Y-74870000D01*
X105350000Y-76200000D02*
X105350000Y-74870000D01*
X105350000Y-77470000D02*
X108010000Y-77470000D01*
X108010000Y-77470000D02*
X108010000Y-108010000D01*
X105350000Y-77470000D02*
X105350000Y-108010000D01*
X105350000Y-108010000D02*
X108010000Y-108010000D01*
G04 #@! TO.C,U2*
X113100000Y-83630000D02*
X112350000Y-83630000D01*
X118570000Y-89850000D02*
X118570000Y-89100000D01*
X117820000Y-89850000D02*
X118570000Y-89850000D01*
X112350000Y-89850000D02*
X112350000Y-89100000D01*
X113100000Y-89850000D02*
X112350000Y-89850000D01*
X118570000Y-83630000D02*
X118570000Y-84380000D01*
X117820000Y-83630000D02*
X118570000Y-83630000D01*
G04 #@! TD*
M02*
