M48
;DRILL file {KiCad 5.0.1-33cea8e~68~ubuntu18.04.1} date Fri 26 Oct 2018 18:50:44 AEDT
;FORMAT={-:-/ absolute / metric / decimal}
FMAT,2
METRIC,TZ
T1C0.300
T2C1.000
%
G90
G05
M71
T1
X111.Y-106.25
X111.Y-107.
X111.Y-107.75
X111.13Y-87.37
X111.84Y-83.88
X112.39Y-98.95
X115.49Y-82.57
X115.5Y-93.53
X116.05Y-91.89
X116.94Y-80.42
X117.04Y-93.12
X117.46Y-90.76
X118.53Y-97.27
X118.9Y-95.37
X119.18Y-90.97
X119.39Y-80.755
X119.41Y-82.07
X121.Y-91.
X121.Y-106.25
X121.Y-107.
X121.Y-107.75
X121.17Y-87.41
T2
X124.46Y-76.2
X124.46Y-78.74
X124.46Y-81.28
X124.46Y-83.82
X124.46Y-86.36
X124.46Y-88.9
X124.46Y-91.44
X124.46Y-93.98
X124.46Y-96.52
X124.46Y-99.06
X124.46Y-101.6
X124.46Y-104.14
X124.46Y-106.68
X109.22Y-76.2
X111.76Y-76.2
X114.3Y-76.2
X116.84Y-76.2
X119.38Y-76.2
X121.92Y-76.2
X106.68Y-76.2
X106.68Y-78.74
X106.68Y-81.28
X106.68Y-83.82
X106.68Y-86.36
X106.68Y-88.9
X106.68Y-91.44
X106.68Y-93.98
X106.68Y-96.52
X106.68Y-99.06
X106.68Y-101.6
X106.68Y-104.14
X106.68Y-106.68
T0
M30
