G04 #@! TF.GenerationSoftware,KiCad,Pcbnew,5.0.1-33cea8e~68~ubuntu18.04.1*
G04 #@! TF.CreationDate,2018-10-25T12:38:31+11:00*
G04 #@! TF.ProjectId,PIC18F24K40,50494331384632344B34302E6B696361,rev?*
G04 #@! TF.SameCoordinates,Original*
G04 #@! TF.FileFunction,Soldermask,Bot*
G04 #@! TF.FilePolarity,Negative*
%FSLAX46Y46*%
G04 Gerber Fmt 4.6, Leading zero omitted, Abs format (unit mm)*
G04 Created by KiCad (PCBNEW 5.0.1-33cea8e~68~ubuntu18.04.1) date Thu 25 Oct 2018 12:38:31 AEDT*
%MOMM*%
%LPD*%
G01*
G04 APERTURE LIST*
%ADD10C,0.100000*%
G04 APERTURE END LIST*
D10*
G36*
X124626627Y-105842299D02*
X124717088Y-105869740D01*
X124786855Y-105890903D01*
X124840712Y-105919691D01*
X124934517Y-105969830D01*
X125063948Y-106076052D01*
X125170170Y-106205483D01*
X125220309Y-106299288D01*
X125249097Y-106353145D01*
X125249097Y-106353146D01*
X125297701Y-106513373D01*
X125314113Y-106680000D01*
X125297701Y-106846627D01*
X125297700Y-106846629D01*
X125249097Y-107006855D01*
X125220309Y-107060712D01*
X125170170Y-107154517D01*
X125063948Y-107283948D01*
X124934517Y-107390170D01*
X124840712Y-107440309D01*
X124786855Y-107469097D01*
X124717088Y-107490260D01*
X124626627Y-107517701D01*
X124501757Y-107530000D01*
X124418243Y-107530000D01*
X124293373Y-107517701D01*
X124202912Y-107490260D01*
X124133145Y-107469097D01*
X124079288Y-107440309D01*
X123985483Y-107390170D01*
X123856052Y-107283948D01*
X123749830Y-107154517D01*
X123699691Y-107060712D01*
X123670903Y-107006855D01*
X123622300Y-106846629D01*
X123622299Y-106846627D01*
X123605887Y-106680000D01*
X123622299Y-106513373D01*
X123670903Y-106353146D01*
X123670903Y-106353145D01*
X123699691Y-106299288D01*
X123749830Y-106205483D01*
X123856052Y-106076052D01*
X123985483Y-105969830D01*
X124079288Y-105919691D01*
X124133145Y-105890903D01*
X124202912Y-105869740D01*
X124293373Y-105842299D01*
X124418243Y-105830000D01*
X124501757Y-105830000D01*
X124626627Y-105842299D01*
X124626627Y-105842299D01*
G37*
G36*
X106846627Y-105842299D02*
X106937088Y-105869740D01*
X107006855Y-105890903D01*
X107060712Y-105919691D01*
X107154517Y-105969830D01*
X107283948Y-106076052D01*
X107390170Y-106205483D01*
X107440309Y-106299288D01*
X107469097Y-106353145D01*
X107469097Y-106353146D01*
X107517701Y-106513373D01*
X107534113Y-106680000D01*
X107517701Y-106846627D01*
X107517700Y-106846629D01*
X107469097Y-107006855D01*
X107440309Y-107060712D01*
X107390170Y-107154517D01*
X107283948Y-107283948D01*
X107154517Y-107390170D01*
X107060712Y-107440309D01*
X107006855Y-107469097D01*
X106937088Y-107490260D01*
X106846627Y-107517701D01*
X106721757Y-107530000D01*
X106638243Y-107530000D01*
X106513373Y-107517701D01*
X106422912Y-107490260D01*
X106353145Y-107469097D01*
X106299288Y-107440309D01*
X106205483Y-107390170D01*
X106076052Y-107283948D01*
X105969830Y-107154517D01*
X105919691Y-107060712D01*
X105890903Y-107006855D01*
X105842300Y-106846629D01*
X105842299Y-106846627D01*
X105825887Y-106680000D01*
X105842299Y-106513373D01*
X105890903Y-106353146D01*
X105890903Y-106353145D01*
X105919691Y-106299288D01*
X105969830Y-106205483D01*
X106076052Y-106076052D01*
X106205483Y-105969830D01*
X106299288Y-105919691D01*
X106353145Y-105890903D01*
X106422912Y-105869740D01*
X106513373Y-105842299D01*
X106638243Y-105830000D01*
X106721757Y-105830000D01*
X106846627Y-105842299D01*
X106846627Y-105842299D01*
G37*
G36*
X106846627Y-103302299D02*
X106937088Y-103329740D01*
X107006855Y-103350903D01*
X107060712Y-103379691D01*
X107154517Y-103429830D01*
X107283948Y-103536052D01*
X107390170Y-103665483D01*
X107440309Y-103759288D01*
X107469097Y-103813145D01*
X107469097Y-103813146D01*
X107517701Y-103973373D01*
X107534113Y-104140000D01*
X107517701Y-104306627D01*
X107517700Y-104306629D01*
X107469097Y-104466855D01*
X107440309Y-104520712D01*
X107390170Y-104614517D01*
X107283948Y-104743948D01*
X107154517Y-104850170D01*
X107060712Y-104900309D01*
X107006855Y-104929097D01*
X106937088Y-104950260D01*
X106846627Y-104977701D01*
X106721757Y-104990000D01*
X106638243Y-104990000D01*
X106513373Y-104977701D01*
X106422912Y-104950260D01*
X106353145Y-104929097D01*
X106299288Y-104900309D01*
X106205483Y-104850170D01*
X106076052Y-104743948D01*
X105969830Y-104614517D01*
X105919691Y-104520712D01*
X105890903Y-104466855D01*
X105842300Y-104306629D01*
X105842299Y-104306627D01*
X105825887Y-104140000D01*
X105842299Y-103973373D01*
X105890903Y-103813146D01*
X105890903Y-103813145D01*
X105919691Y-103759288D01*
X105969830Y-103665483D01*
X106076052Y-103536052D01*
X106205483Y-103429830D01*
X106299288Y-103379691D01*
X106353145Y-103350903D01*
X106422912Y-103329740D01*
X106513373Y-103302299D01*
X106638243Y-103290000D01*
X106721757Y-103290000D01*
X106846627Y-103302299D01*
X106846627Y-103302299D01*
G37*
G36*
X124626627Y-103302299D02*
X124717088Y-103329740D01*
X124786855Y-103350903D01*
X124840712Y-103379691D01*
X124934517Y-103429830D01*
X125063948Y-103536052D01*
X125170170Y-103665483D01*
X125220309Y-103759288D01*
X125249097Y-103813145D01*
X125249097Y-103813146D01*
X125297701Y-103973373D01*
X125314113Y-104140000D01*
X125297701Y-104306627D01*
X125297700Y-104306629D01*
X125249097Y-104466855D01*
X125220309Y-104520712D01*
X125170170Y-104614517D01*
X125063948Y-104743948D01*
X124934517Y-104850170D01*
X124840712Y-104900309D01*
X124786855Y-104929097D01*
X124717088Y-104950260D01*
X124626627Y-104977701D01*
X124501757Y-104990000D01*
X124418243Y-104990000D01*
X124293373Y-104977701D01*
X124202912Y-104950260D01*
X124133145Y-104929097D01*
X124079288Y-104900309D01*
X123985483Y-104850170D01*
X123856052Y-104743948D01*
X123749830Y-104614517D01*
X123699691Y-104520712D01*
X123670903Y-104466855D01*
X123622300Y-104306629D01*
X123622299Y-104306627D01*
X123605887Y-104140000D01*
X123622299Y-103973373D01*
X123670903Y-103813146D01*
X123670903Y-103813145D01*
X123699691Y-103759288D01*
X123749830Y-103665483D01*
X123856052Y-103536052D01*
X123985483Y-103429830D01*
X124079288Y-103379691D01*
X124133145Y-103350903D01*
X124202912Y-103329740D01*
X124293373Y-103302299D01*
X124418243Y-103290000D01*
X124501757Y-103290000D01*
X124626627Y-103302299D01*
X124626627Y-103302299D01*
G37*
G36*
X124626627Y-100762299D02*
X124717088Y-100789740D01*
X124786855Y-100810903D01*
X124840712Y-100839691D01*
X124934517Y-100889830D01*
X125063948Y-100996052D01*
X125170170Y-101125483D01*
X125220309Y-101219288D01*
X125249097Y-101273145D01*
X125249097Y-101273146D01*
X125297701Y-101433373D01*
X125314113Y-101600000D01*
X125297701Y-101766627D01*
X125297700Y-101766629D01*
X125249097Y-101926855D01*
X125220309Y-101980712D01*
X125170170Y-102074517D01*
X125063948Y-102203948D01*
X124934517Y-102310170D01*
X124840712Y-102360309D01*
X124786855Y-102389097D01*
X124717088Y-102410260D01*
X124626627Y-102437701D01*
X124501757Y-102450000D01*
X124418243Y-102450000D01*
X124293373Y-102437701D01*
X124202912Y-102410260D01*
X124133145Y-102389097D01*
X124079288Y-102360309D01*
X123985483Y-102310170D01*
X123856052Y-102203948D01*
X123749830Y-102074517D01*
X123699691Y-101980712D01*
X123670903Y-101926855D01*
X123622300Y-101766629D01*
X123622299Y-101766627D01*
X123605887Y-101600000D01*
X123622299Y-101433373D01*
X123670903Y-101273146D01*
X123670903Y-101273145D01*
X123699691Y-101219288D01*
X123749830Y-101125483D01*
X123856052Y-100996052D01*
X123985483Y-100889830D01*
X124079288Y-100839691D01*
X124133145Y-100810903D01*
X124202912Y-100789740D01*
X124293373Y-100762299D01*
X124418243Y-100750000D01*
X124501757Y-100750000D01*
X124626627Y-100762299D01*
X124626627Y-100762299D01*
G37*
G36*
X106846627Y-100762299D02*
X106937088Y-100789740D01*
X107006855Y-100810903D01*
X107060712Y-100839691D01*
X107154517Y-100889830D01*
X107283948Y-100996052D01*
X107390170Y-101125483D01*
X107440309Y-101219288D01*
X107469097Y-101273145D01*
X107469097Y-101273146D01*
X107517701Y-101433373D01*
X107534113Y-101600000D01*
X107517701Y-101766627D01*
X107517700Y-101766629D01*
X107469097Y-101926855D01*
X107440309Y-101980712D01*
X107390170Y-102074517D01*
X107283948Y-102203948D01*
X107154517Y-102310170D01*
X107060712Y-102360309D01*
X107006855Y-102389097D01*
X106937088Y-102410260D01*
X106846627Y-102437701D01*
X106721757Y-102450000D01*
X106638243Y-102450000D01*
X106513373Y-102437701D01*
X106422912Y-102410260D01*
X106353145Y-102389097D01*
X106299288Y-102360309D01*
X106205483Y-102310170D01*
X106076052Y-102203948D01*
X105969830Y-102074517D01*
X105919691Y-101980712D01*
X105890903Y-101926855D01*
X105842300Y-101766629D01*
X105842299Y-101766627D01*
X105825887Y-101600000D01*
X105842299Y-101433373D01*
X105890903Y-101273146D01*
X105890903Y-101273145D01*
X105919691Y-101219288D01*
X105969830Y-101125483D01*
X106076052Y-100996052D01*
X106205483Y-100889830D01*
X106299288Y-100839691D01*
X106353145Y-100810903D01*
X106422912Y-100789740D01*
X106513373Y-100762299D01*
X106638243Y-100750000D01*
X106721757Y-100750000D01*
X106846627Y-100762299D01*
X106846627Y-100762299D01*
G37*
G36*
X124626627Y-98222299D02*
X124717088Y-98249740D01*
X124786855Y-98270903D01*
X124840712Y-98299691D01*
X124934517Y-98349830D01*
X125063948Y-98456052D01*
X125170170Y-98585483D01*
X125220309Y-98679288D01*
X125249097Y-98733145D01*
X125249097Y-98733146D01*
X125297701Y-98893373D01*
X125314113Y-99060000D01*
X125297701Y-99226627D01*
X125297700Y-99226629D01*
X125249097Y-99386855D01*
X125220309Y-99440712D01*
X125170170Y-99534517D01*
X125063948Y-99663948D01*
X124934517Y-99770170D01*
X124840712Y-99820309D01*
X124786855Y-99849097D01*
X124717088Y-99870260D01*
X124626627Y-99897701D01*
X124501757Y-99910000D01*
X124418243Y-99910000D01*
X124293373Y-99897701D01*
X124202912Y-99870260D01*
X124133145Y-99849097D01*
X124079288Y-99820309D01*
X123985483Y-99770170D01*
X123856052Y-99663948D01*
X123749830Y-99534517D01*
X123699691Y-99440712D01*
X123670903Y-99386855D01*
X123622300Y-99226629D01*
X123622299Y-99226627D01*
X123605887Y-99060000D01*
X123622299Y-98893373D01*
X123670903Y-98733146D01*
X123670903Y-98733145D01*
X123699691Y-98679288D01*
X123749830Y-98585483D01*
X123856052Y-98456052D01*
X123985483Y-98349830D01*
X124079288Y-98299691D01*
X124133145Y-98270903D01*
X124202912Y-98249740D01*
X124293373Y-98222299D01*
X124418243Y-98210000D01*
X124501757Y-98210000D01*
X124626627Y-98222299D01*
X124626627Y-98222299D01*
G37*
G36*
X106846627Y-98222299D02*
X106937088Y-98249740D01*
X107006855Y-98270903D01*
X107060712Y-98299691D01*
X107154517Y-98349830D01*
X107283948Y-98456052D01*
X107390170Y-98585483D01*
X107440309Y-98679288D01*
X107469097Y-98733145D01*
X107469097Y-98733146D01*
X107517701Y-98893373D01*
X107534113Y-99060000D01*
X107517701Y-99226627D01*
X107517700Y-99226629D01*
X107469097Y-99386855D01*
X107440309Y-99440712D01*
X107390170Y-99534517D01*
X107283948Y-99663948D01*
X107154517Y-99770170D01*
X107060712Y-99820309D01*
X107006855Y-99849097D01*
X106937088Y-99870260D01*
X106846627Y-99897701D01*
X106721757Y-99910000D01*
X106638243Y-99910000D01*
X106513373Y-99897701D01*
X106422912Y-99870260D01*
X106353145Y-99849097D01*
X106299288Y-99820309D01*
X106205483Y-99770170D01*
X106076052Y-99663948D01*
X105969830Y-99534517D01*
X105919691Y-99440712D01*
X105890903Y-99386855D01*
X105842300Y-99226629D01*
X105842299Y-99226627D01*
X105825887Y-99060000D01*
X105842299Y-98893373D01*
X105890903Y-98733146D01*
X105890903Y-98733145D01*
X105919691Y-98679288D01*
X105969830Y-98585483D01*
X106076052Y-98456052D01*
X106205483Y-98349830D01*
X106299288Y-98299691D01*
X106353145Y-98270903D01*
X106422912Y-98249740D01*
X106513373Y-98222299D01*
X106638243Y-98210000D01*
X106721757Y-98210000D01*
X106846627Y-98222299D01*
X106846627Y-98222299D01*
G37*
G36*
X106846627Y-95682299D02*
X106937088Y-95709740D01*
X107006855Y-95730903D01*
X107060712Y-95759691D01*
X107154517Y-95809830D01*
X107283948Y-95916052D01*
X107390170Y-96045483D01*
X107440309Y-96139288D01*
X107469097Y-96193145D01*
X107469097Y-96193146D01*
X107517701Y-96353373D01*
X107534113Y-96520000D01*
X107517701Y-96686627D01*
X107517700Y-96686629D01*
X107469097Y-96846855D01*
X107440309Y-96900712D01*
X107390170Y-96994517D01*
X107283948Y-97123948D01*
X107154517Y-97230170D01*
X107060712Y-97280309D01*
X107006855Y-97309097D01*
X106937088Y-97330260D01*
X106846627Y-97357701D01*
X106721757Y-97370000D01*
X106638243Y-97370000D01*
X106513373Y-97357701D01*
X106422912Y-97330260D01*
X106353145Y-97309097D01*
X106299288Y-97280309D01*
X106205483Y-97230170D01*
X106076052Y-97123948D01*
X105969830Y-96994517D01*
X105919691Y-96900712D01*
X105890903Y-96846855D01*
X105842300Y-96686629D01*
X105842299Y-96686627D01*
X105825887Y-96520000D01*
X105842299Y-96353373D01*
X105890903Y-96193146D01*
X105890903Y-96193145D01*
X105919691Y-96139288D01*
X105969830Y-96045483D01*
X106076052Y-95916052D01*
X106205483Y-95809830D01*
X106299288Y-95759691D01*
X106353145Y-95730903D01*
X106422912Y-95709740D01*
X106513373Y-95682299D01*
X106638243Y-95670000D01*
X106721757Y-95670000D01*
X106846627Y-95682299D01*
X106846627Y-95682299D01*
G37*
G36*
X124626627Y-95682299D02*
X124717088Y-95709740D01*
X124786855Y-95730903D01*
X124840712Y-95759691D01*
X124934517Y-95809830D01*
X125063948Y-95916052D01*
X125170170Y-96045483D01*
X125220309Y-96139288D01*
X125249097Y-96193145D01*
X125249097Y-96193146D01*
X125297701Y-96353373D01*
X125314113Y-96520000D01*
X125297701Y-96686627D01*
X125297700Y-96686629D01*
X125249097Y-96846855D01*
X125220309Y-96900712D01*
X125170170Y-96994517D01*
X125063948Y-97123948D01*
X124934517Y-97230170D01*
X124840712Y-97280309D01*
X124786855Y-97309097D01*
X124717088Y-97330260D01*
X124626627Y-97357701D01*
X124501757Y-97370000D01*
X124418243Y-97370000D01*
X124293373Y-97357701D01*
X124202912Y-97330260D01*
X124133145Y-97309097D01*
X124079288Y-97280309D01*
X123985483Y-97230170D01*
X123856052Y-97123948D01*
X123749830Y-96994517D01*
X123699691Y-96900712D01*
X123670903Y-96846855D01*
X123622300Y-96686629D01*
X123622299Y-96686627D01*
X123605887Y-96520000D01*
X123622299Y-96353373D01*
X123670903Y-96193146D01*
X123670903Y-96193145D01*
X123699691Y-96139288D01*
X123749830Y-96045483D01*
X123856052Y-95916052D01*
X123985483Y-95809830D01*
X124079288Y-95759691D01*
X124133145Y-95730903D01*
X124202912Y-95709740D01*
X124293373Y-95682299D01*
X124418243Y-95670000D01*
X124501757Y-95670000D01*
X124626627Y-95682299D01*
X124626627Y-95682299D01*
G37*
G36*
X124626627Y-93142299D02*
X124717088Y-93169740D01*
X124786855Y-93190903D01*
X124840712Y-93219691D01*
X124934517Y-93269830D01*
X125063948Y-93376052D01*
X125170170Y-93505483D01*
X125220309Y-93599288D01*
X125249097Y-93653145D01*
X125249097Y-93653146D01*
X125297701Y-93813373D01*
X125314113Y-93980000D01*
X125297701Y-94146627D01*
X125297700Y-94146629D01*
X125249097Y-94306855D01*
X125220309Y-94360712D01*
X125170170Y-94454517D01*
X125063948Y-94583948D01*
X124934517Y-94690170D01*
X124840712Y-94740309D01*
X124786855Y-94769097D01*
X124717088Y-94790260D01*
X124626627Y-94817701D01*
X124501757Y-94830000D01*
X124418243Y-94830000D01*
X124293373Y-94817701D01*
X124202912Y-94790260D01*
X124133145Y-94769097D01*
X124079288Y-94740309D01*
X123985483Y-94690170D01*
X123856052Y-94583948D01*
X123749830Y-94454517D01*
X123699691Y-94360712D01*
X123670903Y-94306855D01*
X123622300Y-94146629D01*
X123622299Y-94146627D01*
X123605887Y-93980000D01*
X123622299Y-93813373D01*
X123670903Y-93653146D01*
X123670903Y-93653145D01*
X123699691Y-93599288D01*
X123749830Y-93505483D01*
X123856052Y-93376052D01*
X123985483Y-93269830D01*
X124079288Y-93219691D01*
X124133145Y-93190903D01*
X124202912Y-93169740D01*
X124293373Y-93142299D01*
X124418243Y-93130000D01*
X124501757Y-93130000D01*
X124626627Y-93142299D01*
X124626627Y-93142299D01*
G37*
G36*
X106846627Y-93142299D02*
X106937088Y-93169740D01*
X107006855Y-93190903D01*
X107060712Y-93219691D01*
X107154517Y-93269830D01*
X107283948Y-93376052D01*
X107390170Y-93505483D01*
X107440309Y-93599288D01*
X107469097Y-93653145D01*
X107469097Y-93653146D01*
X107517701Y-93813373D01*
X107534113Y-93980000D01*
X107517701Y-94146627D01*
X107517700Y-94146629D01*
X107469097Y-94306855D01*
X107440309Y-94360712D01*
X107390170Y-94454517D01*
X107283948Y-94583948D01*
X107154517Y-94690170D01*
X107060712Y-94740309D01*
X107006855Y-94769097D01*
X106937088Y-94790260D01*
X106846627Y-94817701D01*
X106721757Y-94830000D01*
X106638243Y-94830000D01*
X106513373Y-94817701D01*
X106422912Y-94790260D01*
X106353145Y-94769097D01*
X106299288Y-94740309D01*
X106205483Y-94690170D01*
X106076052Y-94583948D01*
X105969830Y-94454517D01*
X105919691Y-94360712D01*
X105890903Y-94306855D01*
X105842300Y-94146629D01*
X105842299Y-94146627D01*
X105825887Y-93980000D01*
X105842299Y-93813373D01*
X105890903Y-93653146D01*
X105890903Y-93653145D01*
X105919691Y-93599288D01*
X105969830Y-93505483D01*
X106076052Y-93376052D01*
X106205483Y-93269830D01*
X106299288Y-93219691D01*
X106353145Y-93190903D01*
X106422912Y-93169740D01*
X106513373Y-93142299D01*
X106638243Y-93130000D01*
X106721757Y-93130000D01*
X106846627Y-93142299D01*
X106846627Y-93142299D01*
G37*
G36*
X124626627Y-90602299D02*
X124717088Y-90629740D01*
X124786855Y-90650903D01*
X124840712Y-90679691D01*
X124934517Y-90729830D01*
X125063948Y-90836052D01*
X125170170Y-90965483D01*
X125220309Y-91059288D01*
X125249097Y-91113145D01*
X125249097Y-91113146D01*
X125297701Y-91273373D01*
X125314113Y-91440000D01*
X125297701Y-91606627D01*
X125297700Y-91606629D01*
X125249097Y-91766855D01*
X125220309Y-91820712D01*
X125170170Y-91914517D01*
X125063948Y-92043948D01*
X124934517Y-92150170D01*
X124840712Y-92200309D01*
X124786855Y-92229097D01*
X124717088Y-92250260D01*
X124626627Y-92277701D01*
X124501757Y-92290000D01*
X124418243Y-92290000D01*
X124293373Y-92277701D01*
X124202912Y-92250260D01*
X124133145Y-92229097D01*
X124079288Y-92200309D01*
X123985483Y-92150170D01*
X123856052Y-92043948D01*
X123749830Y-91914517D01*
X123699691Y-91820712D01*
X123670903Y-91766855D01*
X123622300Y-91606629D01*
X123622299Y-91606627D01*
X123605887Y-91440000D01*
X123622299Y-91273373D01*
X123670903Y-91113146D01*
X123670903Y-91113145D01*
X123699691Y-91059288D01*
X123749830Y-90965483D01*
X123856052Y-90836052D01*
X123985483Y-90729830D01*
X124079288Y-90679691D01*
X124133145Y-90650903D01*
X124202912Y-90629740D01*
X124293373Y-90602299D01*
X124418243Y-90590000D01*
X124501757Y-90590000D01*
X124626627Y-90602299D01*
X124626627Y-90602299D01*
G37*
G36*
X106846627Y-90602299D02*
X106937088Y-90629740D01*
X107006855Y-90650903D01*
X107060712Y-90679691D01*
X107154517Y-90729830D01*
X107283948Y-90836052D01*
X107390170Y-90965483D01*
X107440309Y-91059288D01*
X107469097Y-91113145D01*
X107469097Y-91113146D01*
X107517701Y-91273373D01*
X107534113Y-91440000D01*
X107517701Y-91606627D01*
X107517700Y-91606629D01*
X107469097Y-91766855D01*
X107440309Y-91820712D01*
X107390170Y-91914517D01*
X107283948Y-92043948D01*
X107154517Y-92150170D01*
X107060712Y-92200309D01*
X107006855Y-92229097D01*
X106937088Y-92250260D01*
X106846627Y-92277701D01*
X106721757Y-92290000D01*
X106638243Y-92290000D01*
X106513373Y-92277701D01*
X106422912Y-92250260D01*
X106353145Y-92229097D01*
X106299288Y-92200309D01*
X106205483Y-92150170D01*
X106076052Y-92043948D01*
X105969830Y-91914517D01*
X105919691Y-91820712D01*
X105890903Y-91766855D01*
X105842300Y-91606629D01*
X105842299Y-91606627D01*
X105825887Y-91440000D01*
X105842299Y-91273373D01*
X105890903Y-91113146D01*
X105890903Y-91113145D01*
X105919691Y-91059288D01*
X105969830Y-90965483D01*
X106076052Y-90836052D01*
X106205483Y-90729830D01*
X106299288Y-90679691D01*
X106353145Y-90650903D01*
X106422912Y-90629740D01*
X106513373Y-90602299D01*
X106638243Y-90590000D01*
X106721757Y-90590000D01*
X106846627Y-90602299D01*
X106846627Y-90602299D01*
G37*
G36*
X106846627Y-88062299D02*
X106937088Y-88089740D01*
X107006855Y-88110903D01*
X107060712Y-88139691D01*
X107154517Y-88189830D01*
X107283948Y-88296052D01*
X107390170Y-88425483D01*
X107440309Y-88519288D01*
X107469097Y-88573145D01*
X107469097Y-88573146D01*
X107517701Y-88733373D01*
X107534113Y-88900000D01*
X107517701Y-89066627D01*
X107517700Y-89066629D01*
X107469097Y-89226855D01*
X107440309Y-89280712D01*
X107390170Y-89374517D01*
X107283948Y-89503948D01*
X107154517Y-89610170D01*
X107060712Y-89660309D01*
X107006855Y-89689097D01*
X106937088Y-89710260D01*
X106846627Y-89737701D01*
X106721757Y-89750000D01*
X106638243Y-89750000D01*
X106513373Y-89737701D01*
X106422912Y-89710260D01*
X106353145Y-89689097D01*
X106299288Y-89660309D01*
X106205483Y-89610170D01*
X106076052Y-89503948D01*
X105969830Y-89374517D01*
X105919691Y-89280712D01*
X105890903Y-89226855D01*
X105842300Y-89066629D01*
X105842299Y-89066627D01*
X105825887Y-88900000D01*
X105842299Y-88733373D01*
X105890903Y-88573146D01*
X105890903Y-88573145D01*
X105919691Y-88519288D01*
X105969830Y-88425483D01*
X106076052Y-88296052D01*
X106205483Y-88189830D01*
X106299288Y-88139691D01*
X106353145Y-88110903D01*
X106422912Y-88089740D01*
X106513373Y-88062299D01*
X106638243Y-88050000D01*
X106721757Y-88050000D01*
X106846627Y-88062299D01*
X106846627Y-88062299D01*
G37*
G36*
X124626627Y-88062299D02*
X124717088Y-88089740D01*
X124786855Y-88110903D01*
X124840712Y-88139691D01*
X124934517Y-88189830D01*
X125063948Y-88296052D01*
X125170170Y-88425483D01*
X125220309Y-88519288D01*
X125249097Y-88573145D01*
X125249097Y-88573146D01*
X125297701Y-88733373D01*
X125314113Y-88900000D01*
X125297701Y-89066627D01*
X125297700Y-89066629D01*
X125249097Y-89226855D01*
X125220309Y-89280712D01*
X125170170Y-89374517D01*
X125063948Y-89503948D01*
X124934517Y-89610170D01*
X124840712Y-89660309D01*
X124786855Y-89689097D01*
X124717088Y-89710260D01*
X124626627Y-89737701D01*
X124501757Y-89750000D01*
X124418243Y-89750000D01*
X124293373Y-89737701D01*
X124202912Y-89710260D01*
X124133145Y-89689097D01*
X124079288Y-89660309D01*
X123985483Y-89610170D01*
X123856052Y-89503948D01*
X123749830Y-89374517D01*
X123699691Y-89280712D01*
X123670903Y-89226855D01*
X123622300Y-89066629D01*
X123622299Y-89066627D01*
X123605887Y-88900000D01*
X123622299Y-88733373D01*
X123670903Y-88573146D01*
X123670903Y-88573145D01*
X123699691Y-88519288D01*
X123749830Y-88425483D01*
X123856052Y-88296052D01*
X123985483Y-88189830D01*
X124079288Y-88139691D01*
X124133145Y-88110903D01*
X124202912Y-88089740D01*
X124293373Y-88062299D01*
X124418243Y-88050000D01*
X124501757Y-88050000D01*
X124626627Y-88062299D01*
X124626627Y-88062299D01*
G37*
G36*
X106846627Y-85522299D02*
X106937088Y-85549740D01*
X107006855Y-85570903D01*
X107060712Y-85599691D01*
X107154517Y-85649830D01*
X107283948Y-85756052D01*
X107390170Y-85885483D01*
X107440309Y-85979288D01*
X107469097Y-86033145D01*
X107469097Y-86033146D01*
X107517701Y-86193373D01*
X107534113Y-86360000D01*
X107517701Y-86526627D01*
X107517700Y-86526629D01*
X107469097Y-86686855D01*
X107440309Y-86740712D01*
X107390170Y-86834517D01*
X107283948Y-86963948D01*
X107154517Y-87070170D01*
X107060712Y-87120309D01*
X107006855Y-87149097D01*
X106937088Y-87170260D01*
X106846627Y-87197701D01*
X106721757Y-87210000D01*
X106638243Y-87210000D01*
X106513373Y-87197701D01*
X106422912Y-87170260D01*
X106353145Y-87149097D01*
X106299288Y-87120309D01*
X106205483Y-87070170D01*
X106076052Y-86963948D01*
X105969830Y-86834517D01*
X105919691Y-86740712D01*
X105890903Y-86686855D01*
X105842300Y-86526629D01*
X105842299Y-86526627D01*
X105825887Y-86360000D01*
X105842299Y-86193373D01*
X105890903Y-86033146D01*
X105890903Y-86033145D01*
X105919691Y-85979288D01*
X105969830Y-85885483D01*
X106076052Y-85756052D01*
X106205483Y-85649830D01*
X106299288Y-85599691D01*
X106353145Y-85570903D01*
X106422912Y-85549740D01*
X106513373Y-85522299D01*
X106638243Y-85510000D01*
X106721757Y-85510000D01*
X106846627Y-85522299D01*
X106846627Y-85522299D01*
G37*
G36*
X124626627Y-85522299D02*
X124717088Y-85549740D01*
X124786855Y-85570903D01*
X124840712Y-85599691D01*
X124934517Y-85649830D01*
X125063948Y-85756052D01*
X125170170Y-85885483D01*
X125220309Y-85979288D01*
X125249097Y-86033145D01*
X125249097Y-86033146D01*
X125297701Y-86193373D01*
X125314113Y-86360000D01*
X125297701Y-86526627D01*
X125297700Y-86526629D01*
X125249097Y-86686855D01*
X125220309Y-86740712D01*
X125170170Y-86834517D01*
X125063948Y-86963948D01*
X124934517Y-87070170D01*
X124840712Y-87120309D01*
X124786855Y-87149097D01*
X124717088Y-87170260D01*
X124626627Y-87197701D01*
X124501757Y-87210000D01*
X124418243Y-87210000D01*
X124293373Y-87197701D01*
X124202912Y-87170260D01*
X124133145Y-87149097D01*
X124079288Y-87120309D01*
X123985483Y-87070170D01*
X123856052Y-86963948D01*
X123749830Y-86834517D01*
X123699691Y-86740712D01*
X123670903Y-86686855D01*
X123622300Y-86526629D01*
X123622299Y-86526627D01*
X123605887Y-86360000D01*
X123622299Y-86193373D01*
X123670903Y-86033146D01*
X123670903Y-86033145D01*
X123699691Y-85979288D01*
X123749830Y-85885483D01*
X123856052Y-85756052D01*
X123985483Y-85649830D01*
X124079288Y-85599691D01*
X124133145Y-85570903D01*
X124202912Y-85549740D01*
X124293373Y-85522299D01*
X124418243Y-85510000D01*
X124501757Y-85510000D01*
X124626627Y-85522299D01*
X124626627Y-85522299D01*
G37*
G36*
X106846627Y-82982299D02*
X106937088Y-83009740D01*
X107006855Y-83030903D01*
X107060712Y-83059691D01*
X107154517Y-83109830D01*
X107283948Y-83216052D01*
X107390170Y-83345483D01*
X107440309Y-83439288D01*
X107469097Y-83493145D01*
X107469097Y-83493146D01*
X107517701Y-83653373D01*
X107534113Y-83820000D01*
X107517701Y-83986627D01*
X107517700Y-83986629D01*
X107469097Y-84146855D01*
X107440309Y-84200712D01*
X107390170Y-84294517D01*
X107283948Y-84423948D01*
X107154517Y-84530170D01*
X107060712Y-84580309D01*
X107006855Y-84609097D01*
X106937088Y-84630260D01*
X106846627Y-84657701D01*
X106721757Y-84670000D01*
X106638243Y-84670000D01*
X106513373Y-84657701D01*
X106422912Y-84630260D01*
X106353145Y-84609097D01*
X106299288Y-84580309D01*
X106205483Y-84530170D01*
X106076052Y-84423948D01*
X105969830Y-84294517D01*
X105919691Y-84200712D01*
X105890903Y-84146855D01*
X105842300Y-83986629D01*
X105842299Y-83986627D01*
X105825887Y-83820000D01*
X105842299Y-83653373D01*
X105890903Y-83493146D01*
X105890903Y-83493145D01*
X105919691Y-83439288D01*
X105969830Y-83345483D01*
X106076052Y-83216052D01*
X106205483Y-83109830D01*
X106299288Y-83059691D01*
X106353145Y-83030903D01*
X106422912Y-83009740D01*
X106513373Y-82982299D01*
X106638243Y-82970000D01*
X106721757Y-82970000D01*
X106846627Y-82982299D01*
X106846627Y-82982299D01*
G37*
G36*
X124626627Y-82982299D02*
X124717088Y-83009740D01*
X124786855Y-83030903D01*
X124840712Y-83059691D01*
X124934517Y-83109830D01*
X125063948Y-83216052D01*
X125170170Y-83345483D01*
X125220309Y-83439288D01*
X125249097Y-83493145D01*
X125249097Y-83493146D01*
X125297701Y-83653373D01*
X125314113Y-83820000D01*
X125297701Y-83986627D01*
X125297700Y-83986629D01*
X125249097Y-84146855D01*
X125220309Y-84200712D01*
X125170170Y-84294517D01*
X125063948Y-84423948D01*
X124934517Y-84530170D01*
X124840712Y-84580309D01*
X124786855Y-84609097D01*
X124717088Y-84630260D01*
X124626627Y-84657701D01*
X124501757Y-84670000D01*
X124418243Y-84670000D01*
X124293373Y-84657701D01*
X124202912Y-84630260D01*
X124133145Y-84609097D01*
X124079288Y-84580309D01*
X123985483Y-84530170D01*
X123856052Y-84423948D01*
X123749830Y-84294517D01*
X123699691Y-84200712D01*
X123670903Y-84146855D01*
X123622300Y-83986629D01*
X123622299Y-83986627D01*
X123605887Y-83820000D01*
X123622299Y-83653373D01*
X123670903Y-83493146D01*
X123670903Y-83493145D01*
X123699691Y-83439288D01*
X123749830Y-83345483D01*
X123856052Y-83216052D01*
X123985483Y-83109830D01*
X124079288Y-83059691D01*
X124133145Y-83030903D01*
X124202912Y-83009740D01*
X124293373Y-82982299D01*
X124418243Y-82970000D01*
X124501757Y-82970000D01*
X124626627Y-82982299D01*
X124626627Y-82982299D01*
G37*
G36*
X124626627Y-80442299D02*
X124717088Y-80469740D01*
X124786855Y-80490903D01*
X124840712Y-80519691D01*
X124934517Y-80569830D01*
X125063948Y-80676052D01*
X125170170Y-80805483D01*
X125220309Y-80899288D01*
X125249097Y-80953145D01*
X125249097Y-80953146D01*
X125297701Y-81113373D01*
X125314113Y-81280000D01*
X125297701Y-81446627D01*
X125297700Y-81446629D01*
X125249097Y-81606855D01*
X125220309Y-81660712D01*
X125170170Y-81754517D01*
X125063948Y-81883948D01*
X124934517Y-81990170D01*
X124840712Y-82040309D01*
X124786855Y-82069097D01*
X124717088Y-82090260D01*
X124626627Y-82117701D01*
X124501757Y-82130000D01*
X124418243Y-82130000D01*
X124293373Y-82117701D01*
X124202912Y-82090260D01*
X124133145Y-82069097D01*
X124079288Y-82040309D01*
X123985483Y-81990170D01*
X123856052Y-81883948D01*
X123749830Y-81754517D01*
X123699691Y-81660712D01*
X123670903Y-81606855D01*
X123622300Y-81446629D01*
X123622299Y-81446627D01*
X123605887Y-81280000D01*
X123622299Y-81113373D01*
X123670903Y-80953146D01*
X123670903Y-80953145D01*
X123699691Y-80899288D01*
X123749830Y-80805483D01*
X123856052Y-80676052D01*
X123985483Y-80569830D01*
X124079288Y-80519691D01*
X124133145Y-80490903D01*
X124202912Y-80469740D01*
X124293373Y-80442299D01*
X124418243Y-80430000D01*
X124501757Y-80430000D01*
X124626627Y-80442299D01*
X124626627Y-80442299D01*
G37*
G36*
X106846627Y-80442299D02*
X106937088Y-80469740D01*
X107006855Y-80490903D01*
X107060712Y-80519691D01*
X107154517Y-80569830D01*
X107283948Y-80676052D01*
X107390170Y-80805483D01*
X107440309Y-80899288D01*
X107469097Y-80953145D01*
X107469097Y-80953146D01*
X107517701Y-81113373D01*
X107534113Y-81280000D01*
X107517701Y-81446627D01*
X107517700Y-81446629D01*
X107469097Y-81606855D01*
X107440309Y-81660712D01*
X107390170Y-81754517D01*
X107283948Y-81883948D01*
X107154517Y-81990170D01*
X107060712Y-82040309D01*
X107006855Y-82069097D01*
X106937088Y-82090260D01*
X106846627Y-82117701D01*
X106721757Y-82130000D01*
X106638243Y-82130000D01*
X106513373Y-82117701D01*
X106422912Y-82090260D01*
X106353145Y-82069097D01*
X106299288Y-82040309D01*
X106205483Y-81990170D01*
X106076052Y-81883948D01*
X105969830Y-81754517D01*
X105919691Y-81660712D01*
X105890903Y-81606855D01*
X105842300Y-81446629D01*
X105842299Y-81446627D01*
X105825887Y-81280000D01*
X105842299Y-81113373D01*
X105890903Y-80953146D01*
X105890903Y-80953145D01*
X105919691Y-80899288D01*
X105969830Y-80805483D01*
X106076052Y-80676052D01*
X106205483Y-80569830D01*
X106299288Y-80519691D01*
X106353145Y-80490903D01*
X106422912Y-80469740D01*
X106513373Y-80442299D01*
X106638243Y-80430000D01*
X106721757Y-80430000D01*
X106846627Y-80442299D01*
X106846627Y-80442299D01*
G37*
G36*
X124626627Y-77902299D02*
X124717088Y-77929740D01*
X124786855Y-77950903D01*
X124840712Y-77979691D01*
X124934517Y-78029830D01*
X125063948Y-78136052D01*
X125170170Y-78265483D01*
X125220309Y-78359288D01*
X125249097Y-78413145D01*
X125249097Y-78413146D01*
X125297701Y-78573373D01*
X125314113Y-78740000D01*
X125297701Y-78906627D01*
X125297700Y-78906629D01*
X125249097Y-79066855D01*
X125220309Y-79120712D01*
X125170170Y-79214517D01*
X125063948Y-79343948D01*
X124934517Y-79450170D01*
X124840712Y-79500309D01*
X124786855Y-79529097D01*
X124717088Y-79550260D01*
X124626627Y-79577701D01*
X124501757Y-79590000D01*
X124418243Y-79590000D01*
X124293373Y-79577701D01*
X124202912Y-79550260D01*
X124133145Y-79529097D01*
X124079288Y-79500309D01*
X123985483Y-79450170D01*
X123856052Y-79343948D01*
X123749830Y-79214517D01*
X123699691Y-79120712D01*
X123670903Y-79066855D01*
X123622300Y-78906629D01*
X123622299Y-78906627D01*
X123605887Y-78740000D01*
X123622299Y-78573373D01*
X123670903Y-78413146D01*
X123670903Y-78413145D01*
X123699691Y-78359288D01*
X123749830Y-78265483D01*
X123856052Y-78136052D01*
X123985483Y-78029830D01*
X124079288Y-77979691D01*
X124133145Y-77950903D01*
X124202912Y-77929740D01*
X124293373Y-77902299D01*
X124418243Y-77890000D01*
X124501757Y-77890000D01*
X124626627Y-77902299D01*
X124626627Y-77902299D01*
G37*
G36*
X106846627Y-77902299D02*
X106937088Y-77929740D01*
X107006855Y-77950903D01*
X107060712Y-77979691D01*
X107154517Y-78029830D01*
X107283948Y-78136052D01*
X107390170Y-78265483D01*
X107440309Y-78359288D01*
X107469097Y-78413145D01*
X107469097Y-78413146D01*
X107517701Y-78573373D01*
X107534113Y-78740000D01*
X107517701Y-78906627D01*
X107517700Y-78906629D01*
X107469097Y-79066855D01*
X107440309Y-79120712D01*
X107390170Y-79214517D01*
X107283948Y-79343948D01*
X107154517Y-79450170D01*
X107060712Y-79500309D01*
X107006855Y-79529097D01*
X106937088Y-79550260D01*
X106846627Y-79577701D01*
X106721757Y-79590000D01*
X106638243Y-79590000D01*
X106513373Y-79577701D01*
X106422912Y-79550260D01*
X106353145Y-79529097D01*
X106299288Y-79500309D01*
X106205483Y-79450170D01*
X106076052Y-79343948D01*
X105969830Y-79214517D01*
X105919691Y-79120712D01*
X105890903Y-79066855D01*
X105842300Y-78906629D01*
X105842299Y-78906627D01*
X105825887Y-78740000D01*
X105842299Y-78573373D01*
X105890903Y-78413146D01*
X105890903Y-78413145D01*
X105919691Y-78359288D01*
X105969830Y-78265483D01*
X106076052Y-78136052D01*
X106205483Y-78029830D01*
X106299288Y-77979691D01*
X106353145Y-77950903D01*
X106422912Y-77929740D01*
X106513373Y-77902299D01*
X106638243Y-77890000D01*
X106721757Y-77890000D01*
X106846627Y-77902299D01*
X106846627Y-77902299D01*
G37*
G36*
X125310000Y-77050000D02*
X123610000Y-77050000D01*
X123610000Y-75350000D01*
X125310000Y-75350000D01*
X125310000Y-77050000D01*
X125310000Y-77050000D01*
G37*
G36*
X107530000Y-77050000D02*
X105830000Y-77050000D01*
X105830000Y-75350000D01*
X107530000Y-75350000D01*
X107530000Y-77050000D01*
X107530000Y-77050000D01*
G37*
G36*
X110070000Y-77050000D02*
X108370000Y-77050000D01*
X108370000Y-75350000D01*
X110070000Y-75350000D01*
X110070000Y-77050000D01*
X110070000Y-77050000D01*
G37*
G36*
X111926627Y-75362299D02*
X112017088Y-75389740D01*
X112086855Y-75410903D01*
X112140712Y-75439691D01*
X112234517Y-75489830D01*
X112363948Y-75596052D01*
X112470170Y-75725483D01*
X112520309Y-75819288D01*
X112549097Y-75873145D01*
X112549097Y-75873146D01*
X112597701Y-76033373D01*
X112614113Y-76200000D01*
X112597701Y-76366627D01*
X112597700Y-76366629D01*
X112549097Y-76526855D01*
X112520309Y-76580712D01*
X112470170Y-76674517D01*
X112363948Y-76803948D01*
X112234517Y-76910170D01*
X112140712Y-76960309D01*
X112086855Y-76989097D01*
X112017088Y-77010260D01*
X111926627Y-77037701D01*
X111801757Y-77050000D01*
X111718243Y-77050000D01*
X111593373Y-77037701D01*
X111502912Y-77010260D01*
X111433145Y-76989097D01*
X111379288Y-76960309D01*
X111285483Y-76910170D01*
X111156052Y-76803948D01*
X111049830Y-76674517D01*
X110999691Y-76580712D01*
X110970903Y-76526855D01*
X110922300Y-76366629D01*
X110922299Y-76366627D01*
X110905887Y-76200000D01*
X110922299Y-76033373D01*
X110970903Y-75873146D01*
X110970903Y-75873145D01*
X110999691Y-75819288D01*
X111049830Y-75725483D01*
X111156052Y-75596052D01*
X111285483Y-75489830D01*
X111379288Y-75439691D01*
X111433145Y-75410903D01*
X111502912Y-75389740D01*
X111593373Y-75362299D01*
X111718243Y-75350000D01*
X111801757Y-75350000D01*
X111926627Y-75362299D01*
X111926627Y-75362299D01*
G37*
G36*
X114466627Y-75362299D02*
X114557088Y-75389740D01*
X114626855Y-75410903D01*
X114680712Y-75439691D01*
X114774517Y-75489830D01*
X114903948Y-75596052D01*
X115010170Y-75725483D01*
X115060309Y-75819288D01*
X115089097Y-75873145D01*
X115089097Y-75873146D01*
X115137701Y-76033373D01*
X115154113Y-76200000D01*
X115137701Y-76366627D01*
X115137700Y-76366629D01*
X115089097Y-76526855D01*
X115060309Y-76580712D01*
X115010170Y-76674517D01*
X114903948Y-76803948D01*
X114774517Y-76910170D01*
X114680712Y-76960309D01*
X114626855Y-76989097D01*
X114557088Y-77010260D01*
X114466627Y-77037701D01*
X114341757Y-77050000D01*
X114258243Y-77050000D01*
X114133373Y-77037701D01*
X114042912Y-77010260D01*
X113973145Y-76989097D01*
X113919288Y-76960309D01*
X113825483Y-76910170D01*
X113696052Y-76803948D01*
X113589830Y-76674517D01*
X113539691Y-76580712D01*
X113510903Y-76526855D01*
X113462300Y-76366629D01*
X113462299Y-76366627D01*
X113445887Y-76200000D01*
X113462299Y-76033373D01*
X113510903Y-75873146D01*
X113510903Y-75873145D01*
X113539691Y-75819288D01*
X113589830Y-75725483D01*
X113696052Y-75596052D01*
X113825483Y-75489830D01*
X113919288Y-75439691D01*
X113973145Y-75410903D01*
X114042912Y-75389740D01*
X114133373Y-75362299D01*
X114258243Y-75350000D01*
X114341757Y-75350000D01*
X114466627Y-75362299D01*
X114466627Y-75362299D01*
G37*
G36*
X117006627Y-75362299D02*
X117097088Y-75389740D01*
X117166855Y-75410903D01*
X117220712Y-75439691D01*
X117314517Y-75489830D01*
X117443948Y-75596052D01*
X117550170Y-75725483D01*
X117600309Y-75819288D01*
X117629097Y-75873145D01*
X117629097Y-75873146D01*
X117677701Y-76033373D01*
X117694113Y-76200000D01*
X117677701Y-76366627D01*
X117677700Y-76366629D01*
X117629097Y-76526855D01*
X117600309Y-76580712D01*
X117550170Y-76674517D01*
X117443948Y-76803948D01*
X117314517Y-76910170D01*
X117220712Y-76960309D01*
X117166855Y-76989097D01*
X117097088Y-77010260D01*
X117006627Y-77037701D01*
X116881757Y-77050000D01*
X116798243Y-77050000D01*
X116673373Y-77037701D01*
X116582912Y-77010260D01*
X116513145Y-76989097D01*
X116459288Y-76960309D01*
X116365483Y-76910170D01*
X116236052Y-76803948D01*
X116129830Y-76674517D01*
X116079691Y-76580712D01*
X116050903Y-76526855D01*
X116002300Y-76366629D01*
X116002299Y-76366627D01*
X115985887Y-76200000D01*
X116002299Y-76033373D01*
X116050903Y-75873146D01*
X116050903Y-75873145D01*
X116079691Y-75819288D01*
X116129830Y-75725483D01*
X116236052Y-75596052D01*
X116365483Y-75489830D01*
X116459288Y-75439691D01*
X116513145Y-75410903D01*
X116582912Y-75389740D01*
X116673373Y-75362299D01*
X116798243Y-75350000D01*
X116881757Y-75350000D01*
X117006627Y-75362299D01*
X117006627Y-75362299D01*
G37*
G36*
X119546627Y-75362299D02*
X119637088Y-75389740D01*
X119706855Y-75410903D01*
X119760712Y-75439691D01*
X119854517Y-75489830D01*
X119983948Y-75596052D01*
X120090170Y-75725483D01*
X120140309Y-75819288D01*
X120169097Y-75873145D01*
X120169097Y-75873146D01*
X120217701Y-76033373D01*
X120234113Y-76200000D01*
X120217701Y-76366627D01*
X120217700Y-76366629D01*
X120169097Y-76526855D01*
X120140309Y-76580712D01*
X120090170Y-76674517D01*
X119983948Y-76803948D01*
X119854517Y-76910170D01*
X119760712Y-76960309D01*
X119706855Y-76989097D01*
X119637088Y-77010260D01*
X119546627Y-77037701D01*
X119421757Y-77050000D01*
X119338243Y-77050000D01*
X119213373Y-77037701D01*
X119122912Y-77010260D01*
X119053145Y-76989097D01*
X118999288Y-76960309D01*
X118905483Y-76910170D01*
X118776052Y-76803948D01*
X118669830Y-76674517D01*
X118619691Y-76580712D01*
X118590903Y-76526855D01*
X118542300Y-76366629D01*
X118542299Y-76366627D01*
X118525887Y-76200000D01*
X118542299Y-76033373D01*
X118590903Y-75873146D01*
X118590903Y-75873145D01*
X118619691Y-75819288D01*
X118669830Y-75725483D01*
X118776052Y-75596052D01*
X118905483Y-75489830D01*
X118999288Y-75439691D01*
X119053145Y-75410903D01*
X119122912Y-75389740D01*
X119213373Y-75362299D01*
X119338243Y-75350000D01*
X119421757Y-75350000D01*
X119546627Y-75362299D01*
X119546627Y-75362299D01*
G37*
G36*
X122086627Y-75362299D02*
X122177088Y-75389740D01*
X122246855Y-75410903D01*
X122300712Y-75439691D01*
X122394517Y-75489830D01*
X122523948Y-75596052D01*
X122630170Y-75725483D01*
X122680309Y-75819288D01*
X122709097Y-75873145D01*
X122709097Y-75873146D01*
X122757701Y-76033373D01*
X122774113Y-76200000D01*
X122757701Y-76366627D01*
X122757700Y-76366629D01*
X122709097Y-76526855D01*
X122680309Y-76580712D01*
X122630170Y-76674517D01*
X122523948Y-76803948D01*
X122394517Y-76910170D01*
X122300712Y-76960309D01*
X122246855Y-76989097D01*
X122177088Y-77010260D01*
X122086627Y-77037701D01*
X121961757Y-77050000D01*
X121878243Y-77050000D01*
X121753373Y-77037701D01*
X121662912Y-77010260D01*
X121593145Y-76989097D01*
X121539288Y-76960309D01*
X121445483Y-76910170D01*
X121316052Y-76803948D01*
X121209830Y-76674517D01*
X121159691Y-76580712D01*
X121130903Y-76526855D01*
X121082300Y-76366629D01*
X121082299Y-76366627D01*
X121065887Y-76200000D01*
X121082299Y-76033373D01*
X121130903Y-75873146D01*
X121130903Y-75873145D01*
X121159691Y-75819288D01*
X121209830Y-75725483D01*
X121316052Y-75596052D01*
X121445483Y-75489830D01*
X121539288Y-75439691D01*
X121593145Y-75410903D01*
X121662912Y-75389740D01*
X121753373Y-75362299D01*
X121878243Y-75350000D01*
X121961757Y-75350000D01*
X122086627Y-75362299D01*
X122086627Y-75362299D01*
G37*
M02*
